<svg xmlns="http://www.w3.org/2000/svg" viewBox="0 0 727.81 226.9" aria-label="THE CITY" role="img"><path d="M399.48 125.25a.8.8 0 0 1 1.33-.26 6.22 6.22 0 0 1 2.09 3c.12.42.61.73.92 1.1.58.7 1.18 1.39 1.71 2.13a2.27 2.27 0 0 1-.19 2.74.82.82 0 0 1-.54.39 6.26 6.26 0 0 1-2.78-.2 2.76 2.76 0 0 0-1.66-.09 24.1 24.1 0 0 0-6.69 2.73 25.21 25.21 0 0 0-5.27 4.57 28.65 28.65 0 0 0-5 8c-.84 1.81-1.68 3.62-2.41 5.48-1.15 2.9-2.24 5.84-3.3 8.78s-2.06 5.94-3.1 8.91a46.75 46.75 0 0 1-4.53 9.16 35.83 35.83 0 0 1-4 5.56c-2 2.14-4 4.29-6 6.35a18.63 18.63 0 0 1-5.84 4c-1.33.57-2.73 1-4.1 1.42a39.69 39.69 0 0 1-3.84 1.2c-1.79.4-3.64.57-5.44.94a44.22 44.22 0 0 0-9.12 2.46 21.54 21.54 0 0 0-2.71 1.66c1 1 2 1.95 2.9 2.9.55.56 1.11 1.13 1.61 1.73a4.79 4.79 0 0 1 1 4 11.55 11.55 0 0 1-1.12 3.12 3.17 3.17 0 0 1-1.25 1.15 4 4 0 0 0-1.51 1.4c-.49.86-2.31.88-3 .05.17-.07.36-.23.49-.19.91.31 1.11-.31 1.42-1a5.61 5.61 0 0 0 .55-2.79c-.34.17-.66.32-1 .49-.12.06-.3.17-.29.24.09.88-.65.47-1.05.68a5.23 5.23 0 0 1-2.08 3.69 1 1 0 0 1 0 1.66 3.53 3.53 0 0 1-2 .82 1.35 1.35 0 0 1-1.43-.83 1.35 1.35 0 0 0-.19-.25 10.15 10.15 0 0 0-.9.79 1.59 1.59 0 0 0-.25.56 3.33 3.33 0 0 1-2.05 2.45 5 5 0 0 1-1.92 0c-.11 0-.21-.34-.29-.54s0-.22 0-.27c-.51-.58 0-.67.38-.79a2.92 2.92 0 0 0 .9-.34 1.27 1.27 0 0 0-.33 0c-.52.14-.52-.19-.38-.48.32-.65.69-1.27 1.07-1.88a4.86 4.86 0 0 0 .48-4.18c-.22-.74-.38-1.49-.59-2.23a.63.63 0 0 0-1.11-.29 3.19 3.19 0 0 0-.65 1.47c-.13 1.23-.31 1.63-1.32 2.16.19.48.33.94 1 .95.24 0 .48.27.74.43a2.42 2.42 0 0 1-3.07 0c-1-.82-.69-1.88-.63-2.9a5.91 5.91 0 0 0 .12-1.89 2.9 2.9 0 0 1 2.91-3.21h1l-1.94-3a4 4 0 0 0-.39 1.08c0 .75-.59 1.15-.95 1.69a11 11 0 0 0-1.21 2 11.2 11.2 0 0 1-2.13 3.16c-.57.68-1.1 1.4-1.61 2.13a3.08 3.08 0 0 1-2.72 1.11c-.34-.07-.55-.26-.43-.64a3 3 0 0 0 .22-1c-.44.51-.88 1-1.34 1.54-.27.31-.29.29-.65.1a6.39 6.39 0 0 0-.75-.09 14.09 14.09 0 0 0-1.59.06c-.85.08-1.7.19-2.54.33a.84.84 0 0 0-.54.42c-.94 2.1-2.87 3-4.76 4a.56.56 0 0 1-.49 0c-.56-.38-.88 0-1.21.34a2.86 2.86 0 0 0-.37.52 1.64 1.64 0 0 1-2.2.68.62.62 0 0 0-.54.12 1.4 1.4 0 0 1-2.26-.1 2.72 2.72 0 0 0-.95-.63l-.25-.87a3.35 3.35 0 0 1-2.44.69c-.16 0-.36.13-.52.22a3.64 3.64 0 0 1-2.81.59c-.16 0-.36.09-.54.16-.52.21-.68.16-.89-.23l-1.4-.21c-.06 0-.15 0-.17-.07-.73-1.38-1.84-.35-2.83-.52 0-.12 0-.32-.1-.61a10.12 10.12 0 0 1-1.33.77 11.92 11.92 0 0 1-5.15 1.12 3.57 3.57 0 0 1-1.71-.55 4.5 4.5 0 0 1-1.83-2c-.06-.14-.42-.21-.65-.24-1.74-.25-3.47-.47-5.2-.73a.92.92 0 0 1-.51-.23c-.4-.39-.75-.82-1.15-1.21a.87.87 0 0 0-.43-.17 21.47 21.47 0 0 1-2.26-.44 8.92 8.92 0 0 1-1.56-.85c.18-.37.1-.67-.48-.68a.8.8 0 0 1-.49-.23c-.63-.6-1.24-1.22-1.88-1.82-.3-.28-.49-.54-.16-.92.06-.07.14-.23.11-.27-.3-.46-.62-.91-.93-1.36-.09-.13-.27-.28-.25-.37a.76.76 0 0 1 .34-.47 4.28 4.28 0 0 1 .82-.21c-.45-.52-1-1.1-1.46-1.7-.19-.24-.46-.53-.46-.8a2.64 2.64 0 0 0-1-1.78 12.86 12.86 0 0 1-1.26-1.74c-.21-.35.29-1 .76-1.13.21 0 .42-.13.73-.22-.7-.69-1.33-1.29-1.91-1.93a1 1 0 0 1-.28-.74c0-.13.4-.23.63-.32a3.73 3.73 0 0 1 .46-.08 5.23 5.23 0 0 0-.41-.79c-.09-.14-.29-.19-.42-.31s-.31-.31-.47-.46l.44-.33a1.53 1.53 0 0 0 .21-.14l.77-.9c-.29-.28-.66-.68-1.06-1s-.28-.48.06-.69.89-.57 1.33-.86c0-.07-.05-.14-.07-.22a3 3 0 0 1-.67 0 2.64 2.64 0 0 1-.57-.26c.13-.15.24-.36.4-.43.62-.28 1.27-.51 1.9-.77a3.22 3.22 0 0 0 .48-.25c-.22-.33-.42-.64-.64-.93a.68.68 0 0 0-.29-.21c-.57-.19-.79-.6-.49-1.09a3.64 3.64 0 0 1 2.45-1.7 8 8 0 0 0 1.13-.4c1.47-.57 2.93-1.19 4.42-1.7a6.31 6.31 0 0 1 1.94-.26 22.93 22.93 0 0 0 5.75-.92 13 13 0 0 1 2.08-.3 8.05 8.05 0 0 1 1.79-1.38 14.09 14.09 0 0 1 3.23-.77c2.92-.37 5.86-.66 8.8-1 1.72-.19 3.45-.36 5.17-.57 1.94-.22 3.87-.45 5.79-.72.56-.08 1.09-.37 1.65-.5a7.34 7.34 0 0 1 2-.31 3.75 3.75 0 0 0 3.52-1.38c.84-1 1.83-1.95 2.73-2.94a21.21 21.21 0 0 1 4.09-3.77c1.39-.88 2.83-1.71 4.21-2.62a10.23 10.23 0 0 0 1.45-1.35 11.35 11.35 0 0 1 4.38-3.27c1.3-.42 1.85-1.66 3.09-2.09a12.68 12.68 0 0 1-1-1.16 2.2 2.2 0 0 1-.42-2 .37.37 0 0 0-.1-.32 5.07 5.07 0 0 1-1.86-4c-.08-1.23 0-2.47 0-3.71-.53-.12-1.19-.23-1.84-.42a7.24 7.24 0 0 1-3.78-2.54c-.83-1.05-1.58-2.17-2.4-3.22a1.27 1.27 0 0 0-.75-.43c-1.36-.19-2.14-1.2-3-2.09a6.64 6.64 0 0 1-1.67-3.8 7.06 7.06 0 0 1 .33-2.52c.15-.58 0-.84-.52-.93-1.58-.29-2.48-1.51-3.48-2.58a6.86 6.86 0 0 1-1.5-2.49 6.42 6.42 0 0 1-.17-3c.13-1 .15-1-.7-1.51a7 7 0 0 1-2.59-2.55 4 4 0 0 1-.83-2.95.42.42 0 0 0-.06-.37 2.25 2.25 0 0 1-.51-2c-.1 0-.18-.1-.25-.09a2.92 2.92 0 0 1-2.61-.84c-1.75-1.55-3.42-3.16-4.14-5.44a5.16 5.16 0 0 0-1.46-2.4 4.73 4.73 0 0 1-1.33-3.75 2.33 2.33 0 0 0-.52-1.7 4.53 4.53 0 0 1-.64-1.43c-.15-.4-.23-.83-.39-1.22a2.36 2.36 0 0 1 .83-2.69.71.71 0 0 0 .17-.47 2.47 2.47 0 0 0-.09-.52l.15-.09.62.55c0-.16 0-.32.06-.61.92.58 1 1.51 1.29 2.23a6.82 6.82 0 0 0-.55 1c-.33.93.46 1.35 1 1.77a12.93 12.93 0 0 0 5.39 2.46c1.25.3 2.52.52 3.78.77a5.31 5.31 0 0 1 .52.2c-.27.66-.8.61-1.29.53-.74-.12-1.46-.34-2.19-.44a16.18 16.18 0 0 1-6.08-2.27 1.87 1.87 0 0 0-.25-.12c.08.36.16.7.21 1a1.56 1.56 0 0 0 .9 1.29c2.06 1 4 2.19 6.37 2.4a55.94 55.94 0 0 0 6.21 0 23 23 0 0 1 6.45.48c1.57.42 3.13.83 4.69 1.26a1.66 1.66 0 0 1 .32.17v.2a3 3 0 0 1-.84 0c-1.69-.35-3.36-.76-5.05-1.11a14.35 14.35 0 0 0-1.85-.21c-.81-.06-1.63-.13-2.44-.12a13 13 0 0 0-1.63.21 3.84 3.84 0 0 1-.81.15c-2.4-.14-4.79-.29-7.18-.49a6.07 6.07 0 0 1-3.09-1.3 8.5 8.5 0 0 0-.79-.44l-.09.13c.06.1.11.24.2.29a1.42 1.42 0 0 1 .73 1.19.75.75 0 0 0 .42.49 16.82 16.82 0 0 0 2.34.85 30.07 30.07 0 0 0 3.38.65 19.25 19.25 0 0 0 2.28 0c.12.61 0 .87-.7.89a12 12 0 0 1-2.88-.08c-1.5-.31-2.94-.83-4.4-1.26l.33 1.68c.77.25 1.55.51 2.32.78a7.59 7.59 0 0 0 4.25.16c.73-.17 1.45-.46 2.19-.62.31-.07.68.15 1 .09a15.78 15.78 0 0 1 5-.41c2.17.28 4.33.64 6.5 1a7.34 7.34 0 0 1 1.27.47c.06-.25.11-.43.15-.6.09 0 .17-.06.21 0 .93.61 1.87 1.2 2.78 1.83a1.87 1.87 0 0 1 .86 2.32 3.94 3.94 0 0 0 .3 1.3 1.13 1.13 0 0 1-.51 0 7 7 0 0 0-3.55-.15c-.57.07-1.13.14-1.7.18a6.77 6.77 0 0 0-2.17.5c-2.5 1-5.08 1.91-7.67 2.74a6.61 6.61 0 0 1-2.23.12c-.31 0-.61-.1-.71.29a1.32 1.32 0 0 0 .64.25h2.93c-.72 1-1.87.39-2.58 1.05a7.91 7.91 0 0 0 2.87-.05 20.07 20.07 0 0 0 5.8-2c1.78-.78 3.62-1.44 5.45-2.1 1.24-.45 2.54-.15 3.81-.22 1.52-.08 2 1.07 2.79 1.9a.27.27 0 0 1 .08.17 1.28 1.28 0 0 0 1 1.21c.11 0 .19.14.4.32a2.84 2.84 0 0 1-.58.09 8.11 8.11 0 0 0-4.57 1.16 40.32 40.32 0 0 1-4.55 2.05 57.42 57.42 0 0 1-5.81 1.95 18.59 18.59 0 0 1-3.52.28c-.27 0-.65-.11-.63.39s.38.41.66.39a23.67 23.67 0 0 0 6.91-1.35 6.51 6.51 0 0 1 2.23-.54 5.82 5.82 0 0 0 2.27-.45l4.28-1.86a8.93 8.93 0 0 1 4.8-.9c.29-.61-.25-1-.44-1.44a3.9 3.9 0 0 1-.14-.59c.21 0 .48 0 .63.14a2 2 0 0 1 .88 2c-.15.76.28 1 .81 1.3a2.57 2.57 0 0 1 .78.76.67.67 0 0 1-.08.57c-.15.27-1.69.31-1.78 0s.07-.52.14-.93c-.25-.41-.79-.1-1.09 0-1 .43-1.85 1-2.77 1.52s-1.91 1-2.88 1.5-2.12 1.09-3.23 1.51c-1.64.62-3.29 1.21-5 1.67s-3.16.67-4.76 1l.44.33a10.32 10.32 0 0 0 1.27.93 2 2 0 0 0 1.25.31c2.9-.73 5.78-1.54 8.66-2.34.25-.07.62-.07.56-.53 0-.09.21-.25.36-.31 1-.44 2-.85 2.94-1.27a.81.81 0 0 1 .29-.13c1 .08 1.15-.54 1.25-1.35a1.41 1.41 0 0 1 1.06-1.39 1.57 1.57 0 0 1 .51.09c-.07.14-.1.32-.21.41a2.46 2.46 0 0 0-.72 2.44 1.59 1.59 0 0 1-.25 1.09 7.77 7.77 0 0 0-1.45 3.14c-.1.41-.11.85-.2 1.27a1.25 1.25 0 0 0 .14 1.24c.19.23.07.73.09 1.17.59-.06.73.3.89.83a5.23 5.23 0 0 0 1.75 2.63c.41.32.37.59 0 .87a2.39 2.39 0 0 0-.94 1.75 14.18 14.18 0 0 1-.39 1.94.81.81 0 0 1-.95.74c.16-1 .29-2 .5-3a4.33 4.33 0 0 1 .57-1.54.74.74 0 0 0-.07-1l-.71-.85-.45.28c.54.24.44.51.14.79-1.2 1.2-2.44 2.35-3.58 3.59a28 28 0 0 0-1.82 2.43 5.57 5.57 0 0 0 .85.75c.49.27 1 0 1.38-.6.55-.87 1.09-1.74 1.66-2.6a3.72 3.72 0 0 1 .63-.55c.32 1-.33 1.62-.65 2.28s-.74 1.29-1.13 2l1.4.62a11.39 11.39 0 0 1 .79-1.31c.16-.21.5-.28.75-.41v.84a5.26 5.26 0 0 1-.08.89 4.46 4.46 0 0 1-.23.68l.76 3h.18c.15-.53.31-1.07.46-1.61a3 3 0 0 1 .16-.74 9.85 9.85 0 0 0 .78-3.42c.11-.88.3-1.75.48-2.62a1 1 0 0 1 .25-.5c.09-.11.27-.14.41-.21.05.15.15.31.12.44-.16.82-.35 1.63-.52 2.44-.05.22-.08.44-.12.69.83-.18.8-.13.79.6a13.26 13.26 0 0 0 .29 2.59c.05.25.38.44.58.65s.44.65 0 .85c-.9.46-.82 1.21-.79 2 .06 1.4.1 2.8.14 4.2 0 .37 0 .74.07 1.24l-.9-.41c-.14.41-.17.7.37.79.25 0 .66.08.46.48-.07.15-.53.25-.72.17a13.86 13.86 0 0 1-1.44-.91l-.57.62c.29.7.55 1.44 1.46 1.67.3.08.37.29.35.68a6.85 6.85 0 0 0 .31 1.88 2.16 2.16 0 0 1-1.45 2.51c-.78.22-.88.37-.67 1.2.14.54.07 1.06-.49 1.23-1 .3-1.23 1.1-1.44 1.93a6.39 6.39 0 0 1-1.78 3.61c-.3.25-.63.46-.94.69l-.16-.15c.07-.13.1-.3.21-.38a5.34 5.34 0 0 0 1.78-3 22.68 22.68 0 0 1 .83-2.4 2 2 0 0 1 .81-.87.75.75 0 0 0 .43-.88c0-.31 0-.62-.06-.93-1.47-.11-2.31.76-3.2 1.71a13.66 13.66 0 0 1-5.3 3.79 15.4 15.4 0 0 0-3.17 1.9c-1.73 1.17-2.83 2.95-4.23 4.44-.65.69-1.37 1.31-2 1.86.14.78.25 1.49.38 2.2a6.5 6.5 0 0 0 1.23 3.31 2.11 2.11 0 0 0 .85.64c.44.15.79 0 .9-.57a4.43 4.43 0 0 1 2-2.91c.47-.31.91-.64 1.38-.94a2.27 2.27 0 0 1 .53-.22l.13.2c-.69.59-1.36 1.19-2.06 1.77a5 5 0 0 0-1.55 2.82c0 .16.23.42.38.61.45.54.95 1.05 1.36 1.61a1 1 0 0 1-.08 1.4c-.68.71-.64 1 .19 1.67.22.16.46.29.67.42a3.06 3.06 0 0 0 1.22-3c1.13.64.76 2.24-.69 3.19 1.43.47 1 1.69 1.13 2.76 1.15-.18 1.42-1.05 1.65-2a1 1 0 0 1 .5 1.21 2.54 2.54 0 0 1-1.48 1.59c-.61.28-1.19.64-1.82 1 .94 1.58 1.86 3 1.29 4.82l.69.18 1.11-.84a1.71 1.71 0 0 1-1.16 2c-.84.29-.84.29-1.41 1.18.54-.42 1-1 1.83-.8-.21.59-1.05 1-.52 1.79l-1.72 2.12.16.12c.48-.8 1.58-1.14 1.57-2.29.21-.43.42-.85.64-1.26 0-.09.12-.24.19-.24 1.21 0 1.68-1 2.35-1.78a4.76 4.76 0 0 1 .56-.47c.44.85-.3 1.32-.46 2 1.32-.93 2.59-1.84 3.88-2.72a2.48 2.48 0 0 1 .73-.22 1.34 1.34 0 0 1 .07.18l-3.39 4.62c.69-.6 1.42-1.23 2.14-1.87.08-.07.19-.19.17-.26-.11-.8.51-1 1-1.14s1.12.49 1.44 1 .83 1.11 1.26 1.67c.24-.13.45-.26.82-.48a2.7 2.7 0 0 1-.09.8c-.33.65-.35.64.15 1.22.33-.17.67-.37 1-.52a1.51 1.51 0 0 1 .52 0v.46c-.3.29-.64.52-1.1.88a2.58 2.58 0 0 0 .59.1c.4-.08.79-.25 1.18-.29.17 0 .36.21.54.32a1.43 1.43 0 0 1-.38.36 3.07 3.07 0 0 1-.67.21c-.25.06-.46.06-.48.46 0 .19-.44.36-.65.52l.4 1.08a5.88 5.88 0 0 0-1.06-.77 3.41 3.41 0 0 0-1-.09v.17a2.64 2.64 0 0 1 .58.45 3.2 3.2 0 0 1 .31.75h.75a1 1 0 0 0 1-.43 3.07 3.07 0 0 1 1.18-.81c.12-.07.36.07.54.12a2.66 2.66 0 0 1-.24.51c-.07.09-.25.08-.35.16s-.3.28-.27.36a1.07 1.07 0 0 0 .37.43 5.07 5.07 0 0 0 .54.36c-.12.16-.25.31-.37.46l-.16.11a11.72 11.72 0 0 1 .81.93.85.85 0 0 1 .07.53c0 .18-.18.38-.14.53a5.22 5.22 0 0 1-.55 4.68.53.53 0 0 0-.06.22l.4.19c.56-.84 1.08-1.63 1.63-2.4a4.84 4.84 0 0 0 .62-3.82 5.16 5.16 0 0 0-1-1.77 4.88 4.88 0 0 1-.74-3.36c.64-.11.63-.11.65.47a4.12 4.12 0 0 0 1.16 3.1l.23-.07c-.36-1.08-.73-2.16-1.08-3.24a1.74 1.74 0 0 1 0-.56l.3-.08c.37.69.74 1.38 1.14 2.1a1.65 1.65 0 0 1 .47-.3 4.44 4.44 0 0 1 .74-.06 3.39 3.39 0 0 1-.33.66c-.09.13-.3.16-.41.29a1.43 1.43 0 0 0-.12.43 1.11 1.11 0 0 0 .39.07.91.91 0 0 0 .41-.19c.26-.17.54-.21.61.12s-.19.44-.32.64-.17 0-.24.06c-.47.18-.69.44-.23.87a2.65 2.65 0 0 1 .66-.16c.13 0 .35.14.36.24a.52.52 0 0 1-.21.4c-.22.12-.5.13-.73.24a.7.7 0 0 0-.33.37c0 .07.19.24.32.31s.51.21.73.36.1.29.14.44c-.15 0-.31.13-.44.1a4.93 4.93 0 0 1-.73-.32c-.15.53-.22 1 .44 1.11a.2.2 0 0 1 .11.06c.17.25.32.49.48.74l-.82-.17a4.1 4.1 0 0 1-.41-.17 2.29 2.29 0 0 1-.48 2.48c.8.75 1.38.5 1.63-.34l-.83-.06c.17-.25.29-.45.42-.63.39-.5.8-1 1.18-1.49.07-.1 0-.27.07-.4.09-.33-.09-.74.45-.9.16-.05.17-.56.24-.86s.14-.56.19-.84a1.75 1.75 0 0 0 0-.6c-.12-.64-.27-1.29-.42-1.93a1.33 1.33 0 0 0-.26-.5c-.52-.65-1.06-1.27-1.57-1.93a5.21 5.21 0 0 0-2.66-1.42 4 4 0 0 1-2-1.12c-.73-.89-1.51-1.74-2.26-2.62a3.78 3.78 0 0 1-.34-.59l.14-.13a1.81 1.81 0 0 1 .49.21c.89.9 1.8 1.8 2.65 2.75.69.76 1.32.7 1.69-.22 0-.09.11-.24.17-.24.88 0 1.36-1.05 2.38-.85.31.07.74-.49 1.09-.74l-.74-.42c.07-.12.12-.32.22-.35.39-.1.84-.3 1.17.36l3.58-3.35a1.93 1.93 0 0 0-.71 0c-.33.15-.6.4-.92.56a3.48 3.48 0 0 1-.71.18 3.89 3.89 0 0 1 1-2.11 5.23 5.23 0 0 1 4.09-2.18h.38a1.92 1.92 0 0 1 .4.36c-.14.11-.26.28-.41.32-.46.09-.94.1-1.4.19a4.8 4.8 0 0 0-2.84 2l.83.23a6 6 0 0 1 3.15-1.81c.52-.07 1.06 0 1.59-.05s1.08-.09 1.62-.13h.63c-.1.21-.18.37-.29.62l6.89-1.58v-.09l-3.88.58a1.8 1.8 0 0 1-.08-.21 2.46 2.46 0 0 1 .59-.33c1.8-.39 3.63-.7 5.41-1.18 1.21-.32 2.51-.53 3.29-1.76.44-.69.7-.68 1.36-.2a2 2 0 0 0 1.66.19 6.84 6.84 0 0 0 2.43-1.1c-.78-.32-1.55-.41-2-1.24.23 0 .42-.06.53 0 1.57.93 3 .13 3.85-1a2.68 2.68 0 0 1 .3-.28l.19.08a2.67 2.67 0 0 1-.3.85 12.85 12.85 0 0 1-1.22 1.11l-.9.81.13.17c.69-.46 1.42-.88 2.06-1.4 1.18-.95 2.35-1.92 3.44-3a20 20 0 0 0 1.39-1.89 10.63 10.63 0 0 1 1.27-1.24c.08-.08.29 0 .44 0l.09.25c.91-1.21 1.85-2.4 2.73-3.64s1.88-2.61 2.69-4a56.63 56.63 0 0 0 2.89-5.44c1.38-3.09 2.64-6.24 3.89-9.39.9-2.25 1.72-4.53 2.53-6.81.69-1.91 1.31-3.85 2-5.78.08-.23.13-.48.2-.71h-.16c-.22.68-.44 1.36-.67 2s-.43 1.25-.67 1.87c-1 2.57-2.08 5.15-3.12 7.72-.84 2.08-1.69 4.15-2.54 6.23-.51 1.26-1 2.54-1.53 3.8-.08.18-.33.29-.5.43a4.58 4.58 0 0 0-.43.34c-.15.15-.28.34-.42.51l-.17-.11c.27-.49.54-1 .8-1.47s.65-1.2.93-1.82c.58-1.29 1.16-2.57 1.67-3.88.95-2.42 1.84-4.87 2.77-7.3.87-2.25 1.76-4.5 2.64-6.74.81-2 1.59-4.1 2.44-6.13.43-1 1-1.94 1.49-2.91a15.37 15.37 0 0 1 1.24-2.3 20.27 20.27 0 0 1 2.16-2.29c.81-.78 1.66-1.51 2.5-2.26l.15.13a5.65 5.65 0 0 1-.56.71 7.38 7.38 0 0 1-.77.58l.23.24a12.92 12.92 0 0 0 1.17-1.17 14 14 0 0 1 4.49-3.49 19.25 19.25 0 0 1 2.64-1.34 23.59 23.59 0 0 1 2.76-.8 7.18 7.18 0 0 1 1.39-.21 6.35 6.35 0 0 1 1.63.07c.81.16 1 .07 1.41-.62.26-.45.61-.76 0-1.22a7.22 7.22 0 0 1-.92-1.06 3 3 0 0 1-.38-.48c-.32-.56-.56-1.17-.93-1.7a4.13 4.13 0 0 1-1.07-1.91c0-.12-.18-.23-.27-.35zM279.3 215.46c.81-.62 1.62-1.25 2.44-1.86a5 5 0 0 0 1.62-2c-1.12 1-2.14 1.83-3.12 2.73a8.59 8.59 0 0 0-.92 1.15 3 3 0 0 0-1.59 1.25l.12.13zm11.3-28.57a21.75 21.75 0 0 1-2.26.38c-2.73.21-5.49.15-8.13 1.09-.94.33-1.92.6-2.89.85a24.35 24.35 0 0 0-5.89 2.33c-1.4.8-2.71 1.78-4.07 2.67-1.94 1.25-3.93 2.43-5.82 3.75a10.49 10.49 0 0 1-4 1.8 11.44 11.44 0 0 0-1.49.52 30.67 30.67 0 0 0 3.59-.66 13.88 13.88 0 0 0 2.83-1c3.1-1.56 6.14-3.24 9.23-4.82a31.66 31.66 0 0 1 6.43-2.65c.38-.09.73-.25 1.1-.36 1.33-.41 2.65-.87 4-1.19 1.83-.43 3.68-.76 5.53-1.13.25-.05.52-.06.78-.09l.12.23c-.25.19-.47.47-.74.53-1.31.31-2.63.55-3.94.85-.44.1-1.05.21-1.24.52a5.5 5.5 0 0 0-.4 1.76l.62-.16c1-.17 2-.3 2.94-.51a6 6 0 0 0 1.33-.56c.23-.11.37-.36.59-.49s.31 0 .47 0c0 .14 0 .33-.05.41a3.16 3.16 0 0 1-2.61 1.5 5 5 0 0 0-1.59.12 7.69 7.69 0 0 0-3.68 2.12 6.23 6.23 0 0 0-2 3.29c-.55 0-.78-.26-.59-.76s.56-1.15.84-1.72l.2-.41-.12-.19c-1.12.39-2.27.71-3.35 1.18a32.18 32.18 0 0 0-5 3.07c-2 1.34-4.13 2.52-6.22 3.73a29.49 29.49 0 0 1-2.82 1.39c-1.17.53-2.37 1-3.55 1.48q-3.15 1.32-6.15 2.71c-.89.39-1.76.81-2.64 1.22l.06.22c2.32.07 4.44-.87 6.59-1.54s4.38-1.53 6.62-2.33a1.35 1.35 0 0 1-1 1.09c-1.68.68-3.36 1.36-5.09 1.9s-3.28.83-4.92 1.22c-.47.11-.95.17-1.42.26l-.08.16a5.26 5.26 0 0 1 .9.61 1.46 1.46 0 0 0 1.57.26c1.09-.29 2.2-.49 3.3-.72 0 .06.05.13.08.19-1 1-2.5.86-3.73 1.37.06.57.48.64.85.53a15.84 15.84 0 0 0 3.32-1.13c1.42-.78 2.66-1.88 4-2.74s3-1.83 4.61-2.64 3.21-1.47 4.82-2.21c.08 0 .13-.15.19-.23a12 12 0 0 1 1.24-1.73 20.11 20.11 0 0 1 5.93-3.72 1.82 1.82 0 0 1 .62 0c0 .09.05.17.07.25-.48.28-.95.59-1.45.85a20.84 20.84 0 0 0-5.14 3.59 1.84 1.84 0 0 0-.39.95 2.51 2.51 0 0 1-.92 1.94c-.33.22-.62.52-1 .72-1.89 1.11-3.8 2.19-5.7 3.31s-3.74 2.32-5.67 3.37a19.29 19.29 0 0 1-3.39 1.3c-1.18.37-2.4.61-3.7.93.3.21.53.4.77.55s.6.49.84.44a10.37 10.37 0 0 0 2.47-.67c2.1-.93 4.15-1.94 6.22-2.91a36.52 36.52 0 0 0 7.81-5.26c1.29-1.08 2.43-2.36 4.28-2.49.24 0 .52-.32.68-.57a17 17 0 0 1 1.15-1.89c.91-1 2-1.82 2.89-2.82a19.33 19.33 0 0 1 6.53-4.77c1.81-.81 3.69-1.49 5.54-2.22a2.6 2.6 0 0 1 .63-.05c0 .07.05.14.07.21-.79.43-1.56.88-2.36 1.28-2 1-4.12 1.94-6.15 3a14.83 14.83 0 0 0-2 1.48c.05.07.09.14.14.2 1.21-.73 2.45-1.43 3.62-2.22a6.09 6.09 0 0 1 3.92-1.34 4.2 4.2 0 0 0 2.67-.5c1.89-1.2 3.76-2.44 5.64-3.66a4.72 4.72 0 0 1 1-.53c.15-.06.37.09.56.15a2.54 2.54 0 0 1-.29.54c-.13.15-.34.23-.49.37a6.11 6.11 0 0 0-1.79 2.54c-.06.17-.36.26-.55.39a2.78 2.78 0 0 1-.19-.71 3 3 0 0 1 .22-.76 6.39 6.39 0 0 0-1.57.93c-1.45 1.08-2.88 2.23-4.83 2.1a6.19 6.19 0 0 0-3.8 1.13c-1.52.94-3.09 1.82-4.65 2.68-.51.28-1.2.29-1.61.65-1.15 1-2.22 2.14-3.28 3.26a.92.92 0 0 0-.11.81c.19.48 0 .7-.4.83s-1.12.29-1.65.52a9.54 9.54 0 0 0-1.85 1c-.8.58-1.47 1.33-2.27 1.89-1.92 1.35-3.85 2.71-5.87 3.92a23 23 0 0 1-3.41 1.45c-.39.16-.8.27-1.19.44-1.56.66-3.11 1.34-4.65 2a3 3 0 0 0-.5.38c.54.24.64.89 1.34.74a13.12 13.12 0 0 0 4.45-1.86 3.19 3.19 0 0 1 1.52-.71 2.89 2.89 0 0 0 1.91-.73c1.47-1.1 2.91-2.25 4.44-3.25a46.64 46.64 0 0 1 4.26-2.37 5.43 5.43 0 0 1 1.42-.3c0 .11.07.23.11.34-1 .42-2 .77-2.9 1.28a28.67 28.67 0 0 0-2.73 1.81c-.91.64-1.82 1.28-2.69 2s-1.63 1.41-2.44 2.12v.18c.32 0 .71 0 .95-.11q2.68-1.65 5.31-3.37c1-.69 2-1.47 3-2.19a2 2 0 0 1 .4-.18l.15.19a17.91 17.91 0 0 1-1.63 1.63c-1.43 1.12-2.92 2.17-4.36 3.28a11.66 11.66 0 0 0-1.15 1.18l.12.18a6.41 6.41 0 0 0 3-.91c1.34-1 2.65-2 4-3.05a1.35 1.35 0 0 1 .5-.13c-1.7 2.76-4.53 4-6.79 5.66-.36-.25-.66-.61-.86-.57-1.2.28-2.4.64-3.58 1-.76.23-1.49.52-2.23.8a2.53 2.53 0 0 0-.37.18c.92 1.3 1.38 1.45 2.76.88.8-.32 1.59-.64 2.37-1a19.07 19.07 0 0 0 2.18-1.06c.86-.52 1.66-1.14 2.47-1.73s1.6-1.15 2.38-1.77 1.68-1.43 2.56-2.1 2-1.31 2.86-2.11 1.83-1.94 1.47-3.47a1.05 1.05 0 0 1 .57-1.13c.69-.48 1.36-1 2-1.46a1.07 1.07 0 0 0-.07-.15 2.5 2.5 0 0 0-.62.2c-.62.38-1.22.79-1.84 1.17a1.4 1.4 0 0 1-.51.08c0-.21-.06-.52.06-.62a6.73 6.73 0 0 1 2.84-1.78 25.1 25.1 0 0 0 3.11-1.12 4.18 4.18 0 0 0 1-.63c.42-.32.73-.85 1.41-.28.22.19.86.06 1.21-.13 1.28-.68 2.52-1.43 3.75-2.17.55-.34 1.07-.73 1.6-1.1l.21.22a11.08 11.08 0 0 1-.89 1 14.14 14.14 0 0 1-1.36 1.06c-1.49 1.07-3 2.08-5 1.85a.79.79 0 0 0-.53.16c-1.82 1.33-3.63 2.67-5.45 4-.83.62-.87.76-.43 1.83l.25-.21a19.09 19.09 0 0 1 4.42-3.84c1-.55 1.93-1.52 3.29-1.21a.57.57 0 0 0 .31-.07c1.09-.54 2.22-1 3.26-1.65.83-.5 1.5-1.24 2.34-1.77a3.73 3.73 0 0 0 1.9-3 3 3 0 0 1 1.51-2.45 14.43 14.43 0 0 0 1.22-.82c.55-.41 1.06-.87 1.62-1.25.18-.12.5-.05.75-.06-.08.21-.08.51-.23.63-.93.76-1.85 1.53-2.84 2.19a2.4 2.4 0 0 0-1.21 2 4.48 4.48 0 0 1-.28 1.42 5.91 5.91 0 0 1-2.76 2.58c-.53.31-1 .68-1.53 1a1.37 1.37 0 0 1 .13.2 6.64 6.64 0 0 0 3-1.65 6.88 6.88 0 0 0 2.33-4c.15-1.23 2.13-2.72 3.37-2.65.11 0 .32.14.31.2a.52.52 0 0 1-.2.4c-.37.2-.79.32-1.15.53a2.73 2.73 0 0 0-1.62 2 6.59 6.59 0 0 1-2.84 4.5 19.47 19.47 0 0 1-3.94 1.68 3.68 3.68 0 0 1-1.15 0v.17a1.77 1.77 0 0 0 .52.25 8.59 8.59 0 0 0 4.12-.38 7 7 0 0 0 3.12-2.63c.81-1.08 1.65-2.14 2.5-3.19.55-.68 1.16-1.31 1.71-2a.71.71 0 0 0 .15-.61 1.57 1.57 0 0 1 .33-1.94.62.62 0 0 0 .11-.54 15.3 15.3 0 0 0-1.67-1.65 14.69 14.69 0 0 0-1.94-1.17 1 1 0 0 0-.72-.1c-.49.2-.93.54-1.42.73a3.55 3.55 0 0 1-1.18.16c-.08 0-.22-.23-.23-.37s.16-.3.24-.29c.9.07 1.51-.54 2.22-.91.13-.07.19-.27.29-.41a3.25 3.25 0 0 0-.46-.22c-.62-.18-1.25-.35-1.88-.51a3.69 3.69 0 0 0-1.08-.17c-.69.06-1.38.29-2.07.3-1 0-1.25-.42-1-1.34l1.72-.31c-.1-.26-.16-.43-.24-.66h4.07a2.7 2.7 0 0 0 0 .28 11.14 11.14 0 0 1-1.39.31 14.85 14.85 0 0 1-1.49 0c-.16.65.21.6.52.5a1.48 1.48 0 0 1 1.48.33 5.29 5.29 0 0 0 1.36.49l-.46-2.88-2.78.31a12.87 12.87 0 0 0-1.4.07c-1.27.27-2.53.61-3.79.91-.24.06-.47.09-.71.14a1.49 1.49 0 0 1 0 .21l3.46-.25.06.17zm-17.87 35.87l.09.22a15.11 15.11 0 0 0 1.65 0 1.65 1.65 0 0 0 1-.36 31.78 31.78 0 0 0 2.33-2.45 5.47 5.47 0 0 1 2.75-2.16 9.29 9.29 0 0 0 3.92-2.37 12.21 12.21 0 0 1 1.14-1c1.21-.87 2.42-1.74 3.66-2.57a1.59 1.59 0 0 1 1.87 0 1 1 0 0 0 .92 0 21 21 0 0 0 2.84-2.09c2-1.9 3.95-3.89 5.92-5.83.5-.5 1.06-.94 1.63-1.45.33.65-.1.91-.37 1.2-1.27 1.32-2.5 2.69-3.85 3.93-1.88 1.73-3.85 3.37-5.8 5a1.28 1.28 0 0 1-1.81.09.76.76 0 0 0-1.05 0c-1.12.82-2.26 1.6-3.37 2.42-.42.31-.79.68-1.18 1a.39.39 0 0 0 .39 0l2.63-1.93a2.26 2.26 0 0 1 2-.39 2.71 2.71 0 0 0 1.16.11 7.79 7.79 0 0 0 3.53-2.13c1.68-1.44 3.23-3 4.86-4.54.17-.16.6-.29.73-.19.32.24.09.51-.15.73-1.42 1.3-2.8 2.63-4.25 3.89a36.64 36.64 0 0 1-3.4 2.67 3.16 3.16 0 0 1-2.92.52 1.08 1.08 0 0 0-1.08.1 39.6 39.6 0 0 0-3.72 2.83c-1.5 1.41-2.83 3-4.25 4.51-.26.27-.56.51-.84.76l.11.11a2.64 2.64 0 0 0 .35-.23c.21-.18.42-.36.62-.56a1.29 1.29 0 0 1 1.85.09c.48.58.75.58 1.29 0 1.26-1.41 2.49-2.85 3.79-4.22.45-.48.88-1.1 1.79-1l-5.05 5.53 1.2.22a11.38 11.38 0 0 0 1.14-1.4 30.88 30.88 0 0 1 4.31-5.56 4.45 4.45 0 0 1 2-1.31 3.17 3.17 0 0 0 1.3-.76c1.63-1.56 3.21-3.17 4.82-4.76.13-.13.4-.32.45-.28.38.3.55-.05.73-.24 1.1-1.18 2.17-2.39 3.28-3.56a1.38 1.38 0 0 0 .27-1.66 18 18 0 0 0-1.4-2.35c-.55-.74-.48-1.27.37-1.69a1.5 1.5 0 0 0 .4-.2 1.16 1.16 0 0 0 .38-.51 5.77 5.77 0 0 0 .05-1 .84.84 0 0 0-.58-.88c-.61-.25-1.17-.6-1.77-.91-.64.81-1.3 1.68-2 2.52-1.26 1.57-2.5 3.14-3.81 4.66a4.85 4.85 0 0 1-4.34 1.78 5.05 5.05 0 0 0-3.24 1c-.09.06-.2.23-.18.27.23.43-.09.59-.35.77-1 .7-2.05 1.32-3 2.08-1.35 1.1-2.63 2.29-3.93 3.45-.28.25-.54.53-.81.79l.11.11c.93-.74 1.87-1.49 2.79-2.24.39-.31.77-.59 1.28-.21.27-.31.53-.6.77-.9a7.55 7.55 0 0 1 4.76-3 9.15 9.15 0 0 0 4.33-1.63 27.53 27.53 0 0 0 5-5.08c.83-1.09 1.63-2.2 2.46-3.28a2.2 2.2 0 0 1 .62-.4c0 .23.11.53 0 .69-.71 1.08-1.48 2.12-2.19 3.2-1.21 1.83-2.88 3.26-4.16 5a9.8 9.8 0 0 1-5.88 3.88c-.69.16-1.37.34-2 .56-.17.05-.26.3-.39.46a1.85 1.85 0 0 0 .6.23 8.37 8.37 0 0 0 5.68-2c1.22-1 2.55-1.94 3.84-2.9a2.94 2.94 0 0 1 .6-.26 1.27 1.27 0 0 1 .13.19 4 4 0 0 1-.44.57c-.66.63-1.33 1.27-2 1.87a11.76 11.76 0 0 1-4.05 2.77 27.92 27.92 0 0 1-4.08.75 2.76 2.76 0 0 0-1.9.94 13.86 13.86 0 0 1-1.6 1.65c-1.74 1.44-3.52 2.83-5.29 4.25-.7.56-1.36 1.18-2.1 1.68-1.3.77-2.64 1.57-3.96 2.39zm32.52-76a9.38 9.38 0 0 0 .77-.61 12.39 12.39 0 0 1 3.76-2.65c.87-.36 1.7-.8 2.53-1.24a1 1 0 0 0 .39-.49 1.86 1.86 0 0 0-.35-2.09c-.51-.55-.35-1 .05-1.53a11.87 11.87 0 0 0 .69-1.19 8.9 8.9 0 0 1-1.29.11 4.92 4.92 0 0 1-.9-.22c.28-.12.54-.26.83-.36.56-.19 1.31-.19 1.66-.57a11.18 11.18 0 0 0 1.31-2.33 11.47 11.47 0 0 0-3.28 1.34 7.06 7.06 0 0 1-1.45.91 35.09 35.09 0 0 1-8.12 2.59c-.45.07-.78.31-.74.8a7.77 7.77 0 0 0 .22 1.09l3.22-1.39a20.68 20.68 0 0 1 5.89-1.51c.12 0 .26.09.39.13-.07.12-.1.28-.2.35a2.61 2.61 0 0 1-.69.34c-1.15.33-2.34.56-3.46 1-1.48.56-2.92 1.23-4.35 1.9-1.09.51-1.19.94-.59 2l.11.14a28.77 28.77 0 0 1 8.31-3.91c0 .26-.09.5-.24.58-1.08.56-2.19 1.08-3.27 1.65-1.48.8-2.94 1.64-4.51 2.52l1 1.54c1.93-1.85 3.45-4.06 6.45-4.45a12 12 0 0 1-.93.89c-1 .88-2.14 1.7-3.15 2.62s-.86.95-.11 2.02zm-9.67-13.91c.3.76.46 1.5 1.17 1.76a4.11 4.11 0 0 0 1.81.21 24.23 24.23 0 0 0 3.6-.64c1.12-.3 2.16-.93 3.28-1.12a16.86 16.86 0 0 0 3.28-1 6.88 6.88 0 0 0 2.26-1 12.23 12.23 0 0 1 2.14-1.38c.92-.52 1.87-1 2.82-1.45.27-.13.8.06.69-.48 0-.11-.59-.2-.88-.15a17.4 17.4 0 0 0-4.77 1.69 25.71 25.71 0 0 1-3.73 1.5c-1.83.59-3.78.65-5.62 1.37a19.31 19.31 0 0 1-4.34.73 13.74 13.74 0 0 1-1.76-.06zm-15.06 58.42c-.95.26-1.73.45-2.5.68a35.93 35.93 0 0 0-7 3.25c-1.74 1-3.48 1.9-5.21 2.88a29.91 29.91 0 0 0-3.11 1.93 6.12 6.12 0 0 0-1.24 1.58 2.07 2.07 0 0 0-.2.68c.24 0 .53.05.71-.06 2.58-1.49 5.21-2.9 7.69-4.54a19.79 19.79 0 0 1 7.25-3.14 6.76 6.76 0 0 0 1.45-.23 4.18 4.18 0 0 0 1.94-2.06 5.62 5.62 0 0 0 .17-.99zm28.68-72.64a3.29 3.29 0 0 0-.67-.17c-.81 0-1.63 0-2.43-.05a31.93 31.93 0 0 0-6.9-.41c-1.44.13-3-.24-4.29.64-.11.06-.3 0-.44 0a1.52 1.52 0 0 0-.57.06c-1 .37-2 .77-3 1.17.28.22-.15 1 .68.91 1.24-.07 2.49-.06 3.73-.08a6.52 6.52 0 0 1 .75.09 5 5 0 0 1-.46.39 5.66 5.66 0 0 1-3.56.38 4.47 4.47 0 0 0-.89.08v.21a7.41 7.41 0 0 0 2.72.86c1.79.28 3.06-.53 4.34-1.49.09-.07.13-.2.21-.29s.37-.49.61-.58c.57-.21 1.19-.29 1.77-.48a27.43 27.43 0 0 1 8.35-1.26zm3.13 5a.93.93 0 0 0-1-.75 10.29 10.29 0 0 0-5.16.69c-1.51.73-3.18 1.13-4.7 1.86a19.12 19.12 0 0 1-6.8 2l1.39 1.34a1.09 1.09 0 0 0-.13.17c.46 0 .93 0 1.38-.07a16.68 16.68 0 0 0 3.49-.48c1.35-.47 2.58-1.3 3.89-1.91 1.51-.71 3-1.41 4.59-2a30.06 30.06 0 0 1 3-.85zm19 89.89l.39-.17c.26-.09.52-.18.79-.25 0 0 .15.23.12.25a5.86 5.86 0 0 1-.69.62 4.66 4.66 0 0 1-.5.25c-.09.05-.2.13-.22.21-.17.74-.35 1.49-.47 2.25 0 .16.15.35.24.53.2-.11.51-.16.6-.32a7.7 7.7 0 0 0 1.2-4.51 2.82 2.82 0 0 0-.87-2.06c-1.6-1.2-2.54-3.17-4.56-3.85h-.08a9 9 0 0 0-1.26.85 2 2 0 0 1-1.62.64c-.83-.08-1.41.49-2.12.72l-.12.2c1.16.4 2.38.72 2.74 2.2.26-.29.42-.48.58-.68-.15-.19-.39-.35-.4-.52s0-.73.22-.84a3.51 3.51 0 0 1 1.23-.27.5.5 0 0 1 .39.25.47.47 0 0 1-.17.4 2.47 2.47 0 0 1-.61.3 1.46 1.46 0 0 0-.05.2c.29.13.59.25.88.4s.42.27.63.4l-.6.33c-.16.08-.45.14-.46.23a.79.79 0 0 0 .18.58 2.29 2.29 0 0 0 .65.37c.72.35 1.24-.3 1.91-.31l-1-1.77c1 .48 1.27-.5 1.82-.83.57.37.5.54-.59 1.46a.44.44 0 0 0 .78 0c.09-.11.14-.29.25-.36a2.41 2.41 0 0 1 .55-.21c0 .19.1.42 0 .56a5 5 0 0 1-.61.8c.29.56.54.58 1 .13a1.59 1.59 0 0 1 .55-.22 3.12 3.12 0 0 1-.11.61.49.49 0 0 1-.26.27c-.71.18-.6.61-.36 1.16zm-79.87-20l2.84.86c-.06.41-.11.69-.17 1.06a18.65 18.65 0 0 0 2.49-.46c2-.65 3.92-1.37 5.87-2.08 1.12-.41 2.23-.86 3.34-1.3a5.27 5.27 0 0 0-1.42-.75 2.58 2.58 0 0 0-1.09-.31c-1.18.19-2.35.46-3.51.74a15.19 15.19 0 0 1-3.52.82c-1.83-.02-3.22.82-4.86 1.39zm32.65-77.53c.07.23.06.31.1.34.83.65 1.65 1.3 2.49 1.93a1.28 1.28 0 0 0 .68.35c1.24 0 2.52.36 3.7-.36.28-.17.66-.52 1 0h.34a24 24 0 0 1 3-.77 34.61 34.61 0 0 1 9.8.11 16.64 16.64 0 0 0 2.35 0 2.88 2.88 0 0 0-1.76-.6c-1.24-.19-2.47-.49-3.72-.63a30.75 30.75 0 0 0-5.57-.38c-2.4.2-4.76.81-7.15 1.21-1.52.25-3 .35-4.3-.81a3.6 3.6 0 0 0-.99-.42zm-21.36 105.44v.2a4.73 4.73 0 0 0 1.82.22 25.33 25.33 0 0 0 4.57-1.7c1.84-.95 3.55-2.16 5.32-3.25a1.4 1.4 0 0 1 .4-.11c.25-.06.58 0 .75-.19s.49-.68.79-1a1.3 1.3 0 0 0 .36-1.75 78.17 78.17 0 0 1-14.01 7.58zm31.3-5.91a14.92 14.92 0 0 0-2.44 1.29 11.28 11.28 0 0 0-3 3.62 24.54 24.54 0 0 0-1.29 3.38c-.09.25-.11.76 0 .79a.77.77 0 0 0 1-.35 17.79 17.79 0 0 1 1.34-1.88 35.36 35.36 0 0 0 4.24-5.21c.2-.33.47-.62.64-1s.06-.56-.49-.64zm-42.52-17.89a3.25 3.25 0 0 0 .87.22c1.7-.16 3.41-.34 5.1-.56a4.83 4.83 0 0 0 1.53-.46c2-1 3.9-2 5.84-3 .4-.21.76-.46 1.14-.69a1.43 1.43 0 0 1-.08-.22 1.75 1.75 0 0 0-.67-.05q-2.91.94-5.79 1.93c-1.11.38-2.18.92-3.31 1.19a12.37 12.37 0 0 0-3.37 1zm19.35 18.61l.12.21a1.36 1.36 0 0 0 .36-.1c1.15-.7 2.31-1.37 3.43-2.11a12.52 12.52 0 0 0 2.81-2.16 16.2 16.2 0 0 1 3-2.84c1.18-.83 2.55-1.37 3.81-2.08s2.54-1.49 3.81-2.23l.63-.35c-.34-.45-.66-.62-1.13-.35a3 3 0 0 1-.68.17c-1.45.43-2.91.72-4 1.93s-2.69 2.43-4 3.64a15.68 15.68 0 0 0-1.38 1.32 11.72 11.72 0 0 1-3.17 2.64c-1.32.63-2.44 1.52-3.61 2.31zm42.37-91.23c-.31-.58-.41-.67-.88-.58a12.76 12.76 0 0 0-2.49.61q-2.94 1.24-5.78 2.7c-1.26.64-2.38 1.6-3.87 1.76s-2.72.3-4.07.48c-.21 0-.39.2-.67.35h2.41a5.8 5.8 0 0 0 1.32-.14c1.52-.44 3.05-.84 4.52-1.4 1.94-.74 3.84-1.63 5.76-2.45.89-.38 1.79-.76 2.7-1.11a6.9 6.9 0 0 1 1.05-.22zm-64.17 74.92l.06.11-.94.86.12.2c.67-.25 1.37-.44 2-.75a5.21 5.21 0 0 1 3.52-.65 2.46 2.46 0 0 0 1.12-.17 25.71 25.71 0 0 0 3.37-1c1.31-.56 2.54-1.3 3.8-2l-.12-.24-.55.22a25.15 25.15 0 0 1-3.5 1.54 32.84 32.84 0 0 1-3.75.5 8.38 8.38 0 0 1-3.56 0 1.82 1.82 0 0 0-1.5.34c-.45.27-.92.53-1.39.77s-.71.35-1.06.52v.06zm28.11 23.81c1.46-.13 6.27-5 6.65-6.2-1.17.51-2.48 1-3.76 1.64a4.13 4.13 0 0 0-1.08.88c-.72.76-1.41 1.55-2.11 2.33l-.7.77.81-.09c.06.23.13.45.19.67zM296 123.54a1.27 1.27 0 0 0 .36 0l3.55-1.27c1.15-.4 2.3-.8 3.47-1.16a5.5 5.5 0 0 1 1.08-.13c1.48-.16 3-.33 4.44-.52.18 0 .34-.22.5-.34-.12-.15-.22-.39-.37-.42a5.08 5.08 0 0 0-1.34-.13c-1.51.11-3 .25-4.53.44a2.69 2.69 0 0 0-1.6.53 2.47 2.47 0 0 1-1.43.69 6.28 6.28 0 0 0-1.53.58c-.9.51-1.75 1.14-2.6 1.73zm-18.52 93.6c-1.43 1.07-2.88 2.19-4.37 3.25-1.31.93-2.66 1.78-4 2.69a1.34 1.34 0 0 0-.43.61.57.57 0 0 0 0 .5.61.61 0 0 0 .51 0c.86-.42 1.72-.86 2.56-1.33a1.58 1.58 0 0 0 .72-.62 3.92 3.92 0 0 1 2.42-2 8.09 8.09 0 0 0 3.06-2.31c-.15-.33-.35-.58-.47-.79zm-22-3.71l.09.2a11.54 11.54 0 0 0 1.75-.68c1.76-1 3.49-2 5.22-3s3.51-2.14 5.27-3.19c.69-.42 1.42-.78 2.11-1.21a4.11 4.11 0 0 0 .65-.72l-.2-.22zm5.77 3.16a.86.86 0 0 0-1.14 0c-1.13.68-2.32 1.26-3.48 1.88l-.42.23c.58.29 1.13.57 1.68.82a.56.56 0 0 0 .42 0q2.43-.9 4.86-1.84a2 2 0 0 0 .5-.37 11.68 11.68 0 0 0-1.76.56c-.67.22-.92 0-.82-.72a3 3 0 0 1 .18-.56zm11.11 2.69c0-.08-.09-.16-.14-.24a22.47 22.47 0 0 1-7.08 3.52c.27.36.49.62.67.9a.57.57 0 0 0 .9.22c1-.59 2.11-1.14 3.16-1.71a.65.65 0 0 0 .26-.26 4 4 0 0 1 1.54-1.89 7.12 7.12 0 0 0 .71-.54zm-18.92-16.59c.37 0 .77.21 1 .08 1.22-.83 2.5-.54 3.8-.33s2.38-.53 2.59-2.11c-.37.09-.71.15-1 .24q-1.32.38-2.64.78c-.94.28-1.87.56-2.8.87a7.81 7.81 0 0 0-.93.47zm21.65-13.82l.06-.15a2.2 2.2 0 0 0-.56 0 10.92 10.92 0 0 0-1.11.34c-1.29.44-2.58.89-3.85 1.36-.74.27-1.46.59-2.18.9-.13.06-.3.23-.3.33s.16.42.26.43a3 3 0 0 0 1.23-.07c.75-.31 1.43-.76 2.16-1.11 1.44-.73 2.88-1.37 4.31-2.03zm-18.36 16.21c6.07-1.42 11.26-4.61 16.21-8.26-5.17 3.19-10.34 6.39-16.21 8.26zm8.38-15.39a2.82 2.82 0 0 0 2.49.39c1.61-.66 3.26-1.21 5-1.85-2.7-.46-5 .78-7.49 1.43zm45.62-45.37c-1.17-.22-3.68 1.87-4.9 3.89.72 1 .72 1 1.52.06.06-.07.12-.13.17-.2.81-1 1.6-2.06 2.42-3.08a5.91 5.91 0 0 1 .79-.7zm6.34 9h-.16c0 .57-.09 1.13-.13 1.7-.06.83-.15 1.67-.15 2.5 0 1.29.05 2.58.13 3.87 0 .23.23.44.35.66l.24-.07c-.09-1.58-.21-3.15-.25-4.73a4.17 4.17 0 0 1 .27-1.91 1.07 1.07 0 0 0 .05-1.21 5.82 5.82 0 0 1-.35-.86zm-4.7 56.76l-10.22 8.2a1.47 1.47 0 0 0 .1.13 52.89 52.89 0 0 0 10.12-8.33zm-53.18-6.84c-.91-.08-1.82-.19-2.74-.21a2.19 2.19 0 0 0-1.21.31 18.17 18.17 0 0 0-1.8 1.45c2.16.17 3.88-1.04 5.75-1.53zm37.07 12.84l-.14-.11a12.31 12.31 0 0 0-1.59 1.47c-.84 1.07-1.57 2.22-2.36 3.34-.44.63-.9 1.26-1.35 1.88a.39.39 0 0 0 .34-.07 15.13 15.13 0 0 0 2.95-3.43c.66-.85.94-2 1.95-2.58.12-.1.14-.36.2-.5zm2.14 2.87c1.6.1 7.82-4.59 8.48-6.31a37.6 37.6 0 0 1-8.48 6.28zm-49.89-16.97c0 .06 0 .12.07.19.28-.07.74-.26.81-.16.35.46.66.13 1 0 .75-.25 1.49-.53 2.24-.77s1.31-.37 1.85-.51c-2.23-.82-3.99.69-5.97 1.25zm32-8.3a3.44 3.44 0 0 0 2.2-3.25c-.58.4-1.22.65-1.5 1.11a9.11 9.11 0 0 0-.61 2.14zm21.59 20.27a1.43 1.43 0 0 1-.14-.2c-.23.19-.44.38-.67.55a7.54 7.54 0 0 1-.77.47c-.71.39-1.06.23-1.27-.58l.45-.49-.65-.17c-.23 1-.46 1.91-.68 2.84a16.85 16.85 0 0 0 3.78-2.42zm10-68.94c-2.12 1.14-3.09 3.29-5 4.58l.61.36c1.52-1.64 2.89-3.24 4.43-4.94zm74.25-4.25c-2.22 1.42-3 3.78-4 6a1.51 1.51 0 0 0 .62-.66 18.18 18.18 0 0 1 2.51-4.33c.37-.31.64-.69.91-1.01zm-58.05 74.69c.29-.5.51-.9.78-1.35.24 0 .65 0 .5-.54l-.84-.16a1.48 1.48 0 0 0 0-.21l.94-.18c0-.58-.1-.66-.62-.61s-.89.16-.91.68c-.01.7.09 1.41.15 2.37zm-49.22 1.3l.21.26a39 39 0 0 0 5.09-4.25l-.11-.13zm12.57-9c-1.64.31-3.42.18-4.74 1.5 1.6-.42 3.3-.54 4.74-1.49zm7.8 4.89l.23.16 3.88-4.4c-1.35 1.12-2.61 2.34-3.84 3.58-.12.17-.18.45-.27.67zm-20.73-.5l4.83-3.53c-1.16.14-3.67 1.93-4.83 3.54zm35.8 3.33c.12.19.21.36.28.47l1.38-1.93a8.2 8.2 0 0 0-1-.68c-.07 0-.31.23-.44.34l.8.69-.12.17-.79-.26c-.49.54.24.59.34.89zm-59.92-9.39c0-.08-.05-.16-.07-.23-1.63-.47-2.61.94-3.95 1.32 0 .06 0 .12.05.17zm47.56 9.43l-.11-.15-3.45 1.89c.21.52.48.39.75.22.69-.43 1.39-.85 2.07-1.3a7.37 7.37 0 0 0 .71-.64zm-11-92.55c.31.83 2.28 1.08 3.94.61zm59.58 73.89c-.56-.2-.92-.33-1.28-.44-.11 0-.28-.06-.35 0-.58.47-1.14 1-1.7 1.45zm-16.34 3.93a3.73 3.73 0 0 0-3.48.81c.59-.09 1.13-.13 1.66-.26s1.02-.32 1.74-.53zm-24.06 12.73l-.12-.13c-1.86 1.19-2.29 1.63-2.18 2.34zm-.12-6.07l-.25-.2-2.48 3.19.15.12zm3 .57a4 4 0 0 0 .55-.69.59.59 0 0 0-.11-.53.64.64 0 0 0-.57 0c-.34.15-.23.99.08 1.29zm-14.67 6.58l-.27-.17-1.58 2.66.15.09zm29.26-.83c-.09-.43 0-.86-.53-.78-.18 0-.5.27-.49.37.03.61.51.34.97.43zm-17.09-3.47c-.54-.16-1.33.57-1.75 1.57zm71.2-61.77c-.45 0-1.3 1.75-1.34 2.6.4-.85.82-1.68 1.29-2.58zm-51.64 66h.21a2.24 2.24 0 0 0-.21-2zm-31.93-2.11l-.11-.09c-.56.65-1.11 1.3-1.67 1.94l.16.14zm5.13.78l1.59-.38a1.82 1.82 0 0 0-.07-.25c-.56.12-1.26-.25-1.57.61zm1-7.13l-.21-.22-1 1.21.16.15zm9.32-64.35c-.74.6 0 .92-.07 1.43.65-.57-.13-.92.05-1.45zm-19.69 79.08c.44-.29 1.12-.46.63-1.35-.26.5-.46.91-.65 1.33zm20.9-12.51l-.41-.64c-.23.26-.38.42-.52.56l.5.45zm-66.77-1.2c-.67-.26-1 .17-1.37.62z"></path><path d="M360.32 142.17a3.35 3.35 0 0 1-.09-.76 13.65 13.65 0 0 1 .37-1.33c-.86.55-1.58 1-2.29 1.48-.41.27-.82.55-1.21.85a3.82 3.82 0 0 0-.37.42 3.71 3.71 0 0 1-.86.78.9.9 0 0 0-.61.92c0 .86-.09.93-1 .91-.45 0-.93-.07-1 .67a5 5 0 0 0 .61-.06c.46-.09.68.12.53.54a2.23 2.23 0 0 1-1.33 1.4c-.41.16-.84.27-1.26.43a.46.46 0 0 0-.27.22 1.23 1.23 0 0 1-1.54.72 1.27 1.27 0 0 0-1.33.55.64.64 0 0 0-.11.52.53.53 0 0 0 .48.21 15 15 0 0 0 1.83-.7 9.83 9.83 0 0 0 1.12-.68l.16.17a2.71 2.71 0 0 1-.52.71 4.8 4.8 0 0 1-2.48 1.09c-.58 0-.74.37-.67.79a24.13 24.13 0 0 0 .64 2.67.68.68 0 0 0 .58.32 4.61 4.61 0 0 0 .88-.35 1.56 1.56 0 0 1 .44 0c0 .17 0 .43-.13.5-.4.27-.84.47-1.31.73.16.64.76.67 1.25.69a2.14 2.14 0 0 0 2-1.14c.56-.19.95-.34 1.35-.45.11 0 .33 0 .36.07s.08.37 0 .45a1.19 1.19 0 0 1-.65.38c-.51 0-.74.28-1.06.58a2.71 2.71 0 0 1-2.15.81h-.65c-.07.93-.14 1.82-.2 2.53.55.14 1.11.29 1.68.4a.88.88 0 0 0 .64-.11 8.25 8.25 0 0 0 .9-.94 6.32 6.32 0 0 1-1.43-.32c-.34-.17-.91-.22-.88-1 .77.32 1.5.83 2.31.39a21.94 21.94 0 0 1 2.11-1.09l-.58 1a1.63 1.63 0 0 0 1.68-.23 11.15 11.15 0 0 0 1-1.35c.44.85.24 1.32-1 2.5a2.41 2.41 0 0 0 2.87.21c.11-.07.21-.18.33-.19a1.53 1.53 0 0 1 .41.07c-.05.13-.05.33-.14.38a12.87 12.87 0 0 1-1.24.72 4.55 4.55 0 0 1-.77.23c.53.22 1.08.34 1 1a.52.52 0 0 0 .42.19 7.12 7.12 0 0 0 .86-.36c.21-.08.43-.12.64-.18-.06.2-.07.49-.21.59a3.68 3.68 0 0 1-1.27.66 1.13 1.13 0 0 1-1-.38c-.4-.69-1-.67-1.59-.6s-1.35.09-2 .2a.65.65 0 0 0-.41.47 11.73 11.73 0 0 0 .07 1.45c-.63 0-.8-.87-.46-2.26a.45.45 0 0 0-.06-.12l-.52-.53a3.14 3.14 0 0 1 .86 0 1.88 1.88 0 0 0 1.77-.14c.08-.06.22 0 .33 0h.84l-1.23-1.09.08-.1h-.12a2.52 2.52 0 0 0-2.63 1.19 4.22 4.22 0 0 1-.88.73s-.11.05-.11.07c0 .75-.75 1-1.25 1.56.77.05 1 .48 1.08 1.06.15.79.39 1.57.55 2.36a2.4 2.4 0 0 1-.89 2c0-.32-.13-.54-.07-.69a3.56 3.56 0 0 0-.22-2.89c-.1-.21-.08-.47-.18-.68s-.25-.46-.4-.48a.69.69 0 0 1-.62-.77 1.43 1.43 0 0 1 .44-.86 4 4 0 0 1 .86-.53c-.77-.72-1.3-.68-1.7.14a6.19 6.19 0 0 0-.54 1.64 2 2 0 0 1-2 1.74c-.43 0-.63.08-.78.52a2.28 2.28 0 0 1-1.42 1.47 3.45 3.45 0 0 1-.86.07c0-.09-.08-.18-.11-.27a3.59 3.59 0 0 1 .34-.17c1.26-.53 1.53-1.68 1.79-2.85a3.11 3.11 0 0 1 .5-1.23c.5-.64 1-.49 1.27.29-1 0-1.16.27-1.05 1.36a1.41 1.41 0 0 0 1.4-1.19c.14-.66.38-1.3.59-2l-.37-.31v-.16c1-1.29.79-2.65.3-4.07s-.88-2.76-1.31-4.14a1.17 1.17 0 0 1 0-.32c.06-1.78-1-2.85-2.32-3.81a7.64 7.64 0 0 1-1.67-1.48c-1.34-1.84-2.61-3.75-3.88-5.64-.74-1.09-1.44-2.21-2.14-3.33-.31-.48-.59-1-.89-1.48-1-1.64-2-3.28-3.08-4.89-.45-.7-1-1.32-1.57-2.08-.06.31-.09.48-.12.66h-.11a10.35 10.35 0 0 1-.82-1.06c-.14-.24-.09-.59-.21-.86a9.6 9.6 0 0 0-.68-1.21c-1.36-2.13-2.7-4.26-4.11-6.36s-2.81-4.15-4.25-6.25c-.5-.71-1-1.45-1.48-2.17a4.89 4.89 0 0 0-.37-.41c-.3-.5-.62-1-.88-1.48l-3-6a23.56 23.56 0 0 0-3.78-5.92c-.46-.48-1-.92-1.45-1.38l-.28.22c.38.69.73 1.4 1.14 2.06.51.82 1.08 1.61 1.61 2.42a.52.52 0 0 1 .12.29c-.17 1.23.74 2 1.21 3a24.87 24.87 0 0 1 1.1 2.79c.07.21-.15.51-.38.8a173.27 173.27 0 0 0 9.9 17.21l-.28.19c-.86-1-1.8-2-2.58-3.13a8.47 8.47 0 0 1-1.75-3.66c0-.2-.28-.36-.4-.56-.81-1.23-1.62-2.47-2.41-3.71a32.88 32.88 0 0 1-2.08-3.37 34.24 34.24 0 0 0-2.91-5.4c-.55-.76-.94-1.63-1.42-2.44a2.87 2.87 0 0 0-.4-.46l-.2.11c.28.56.54 1.12.85 1.65s.72 1.11 1.08 1.67c.22.33.25.69-.14.88s-.51-.18-.68-.47c-.49-.85-1-1.67-1.52-2.52a3.11 3.11 0 0 1-.53-1.94c0-.29-.33-.86-.55-.89-.83-.09-1-.72-1.16-1.28a17.15 17.15 0 0 1-.62-2.34 6.13 6.13 0 0 0-1.49-2.36c-2.35-3.1-4.8-6.12-7.13-9.24-2-2.7-4.06-5.41-5.87-8.25-2.59-4-5-8.18-7.43-12.34-1.14-2-2-4.15-3.05-6.21-.39-.78-1-1.46-1.38-2.23-.76-1.38-1.48-2.79-2.2-4.19s-1.47-2.75-2.11-4.17c-1.16-2.54-2.2-5.13-3.36-7.67a48.53 48.53 0 0 1-2.41-7.56c-.55-2-1.14-4.1-1.55-6.19s-.63-4.13-.9-6.2a25.66 25.66 0 0 1-.36-4.08c0-.85-.77-1.17-.71-2-.61.35-.76 0-.82-.45-.27-1.71-.56-3.42-.77-5.14-.19-1.57-.34-3.15-.43-4.72a29.52 29.52 0 0 1 .05-3.26c0-.36.19-.71.71-.38.12.07.39-.1.77-.2.32 3.32.65 6.62 1 9.93h.07V6.5 3.88a4.77 4.77 0 0 1 .45-1.12 2.62 2.62 0 0 0 .16-.67V.93c0-.83.14-.7 1-.89s.8.32.81.75c.06 1.48.06 2.95.09 4.43 0 1.16.06 2.31.09 3.47 0 1.41.08 2.83.1 4.24a67.71 67.71 0 0 0 1.17 12.15c.23 1.14.13 2.34.31 3.49a8.55 8.55 0 0 0 .74 2.43 66.26 66.26 0 0 1 2.69 7.32c.78 2.21 1.72 4.36 2.59 6.54.13.34.3.66.4 1 .92 3.35 2.82 6.2 4.64 9.08 1.12 1.77 2.41 3.42 3.58 5.16s2 3.24 3.09 4.84c1.17 1.78 2.37 3.54 3.58 5.29 1.63 2.32 3.27 4.64 4.93 6.94 2.06 2.84 4.15 5.65 6.22 8.47a8.23 8.23 0 0 1 1.17 1.75 12.94 12.94 0 0 0 .61 1.44c.31.57.54 1.2.83 1.79a.52.52 0 0 0 .46.21c-.27-.83-.59-1.64-.8-2.49a15.31 15.31 0 0 1-.32-2.34c0-.4.08-.78.64-.38.1.07.37-.11.66-.2.17.48.36 1 .51 1.46.22.72.4 1.44.61 2.16.27.89.48 1.81.83 2.66a23.72 23.72 0 0 0 1.55 3.11 8.67 8.67 0 0 0 1.35 1.36 14.39 14.39 0 0 1 1 1.08 32.76 32.76 0 0 1 4.24 6.71c.6 1.27 1.18 2.55 1.75 3.77.79-.42 1.51-.77 2.19-1.19.14-.09.15-.45.15-.69 0-1.11 0-1.09 1.08-1.34.67-.16.67.48 1 .73a3.58 3.58 0 0 1 .65 1.11l-.45.17a.42.42 0 0 0 0 .13 9.49 9.49 0 0 0 3.76 3.33 13.5 13.5 0 0 0 3.72 1.05 16.58 16.58 0 0 1 7.84 2.67c.24.17.54.26.79.42a2.82 2.82 0 0 1 .44.41 2.4 2.4 0 0 0-.11.23 3.37 3.37 0 0 1-.79-.18 32.53 32.53 0 0 0-3.62-1.75 34.16 34.16 0 0 0-4.29-1c-.9-.18-1.81-.31-2.71-.44a2.31 2.31 0 0 0-.62.11 2.25 2.25 0 0 1-.83.13 6.3 6.3 0 0 1-1.17-.49c-.4.73-.53.8-1.33.38a5.39 5.39 0 0 1-2.39-2c-.2-.35-.66-.55-1-.81h-.07c-.26.41-1.21.24-1 1a6.92 6.92 0 0 0 .75 1.39 1.33 1.33 0 0 0 1.29.68 15.55 15.55 0 0 1 4.12.6 9.09 9.09 0 0 0 1.66.1c1.12 0 2.25.06 3.38.12a3.53 3.53 0 0 1 .76.24 1 1 0 0 0 0 .17h-1.91a5.51 5.51 0 0 0-1.15 0 10 10 0 0 1-4.14-.25c-.94-.18-1.9-.23-2.85-.34l-.11.26a3.05 3.05 0 0 0 .86.44c1.4.17 2.81.21 4.2.43a5.93 5.93 0 0 1 3.17 1.16c.37.32 1 .28 1.6.35 1.63.21 3.28.3 4.88.62a11.7 11.7 0 0 1 2.63 1.14c.15.07.18.39.31.73a17.29 17.29 0 0 0-2.49-1 21.24 21.24 0 0 0-3.62-.54 34.89 34.89 0 0 1-7.12-.85c-1-.25-2-.35-3-.52l-.1.18a2.42 2.42 0 0 0 .71.4c1.6.27 3.21.48 4.82.74.19 0 .36.21.54.32a2.09 2.09 0 0 1-.63.16c-1.36 0-2.72-.1-4.07-.16 0 .06 0 .12-.05.18l3 .86-.06.33-2.25-.24-.11.13c.15.16.28.44.45.46.72.09.62.37.21.76.66 1 1.36 2 1.93 3a1.83 1.83 0 0 0 1.63.93c.3 0 .84.25.83.33-.06.59-.52.28-.85.28h-.58c.57.88 1.12 1.72 1.68 2.55.35.53.9.21 1.35.26a8.36 8.36 0 0 0 1.73-.07c.48 0 .95-.16 1.43-.21a3 3 0 0 1 .59 0c-.07.23-.08.57-.23.65a6.65 6.65 0 0 1-1.43.53 16.26 16.26 0 0 1-1.61.31 15 15 0 0 0 3.39 5.64c0 .26-.14.51-.07.68a12.21 12.21 0 0 0 .89 1.77c.85 1.36 1.76 2.69 2.65 4 .08.12.2.22.31.14a23 23 0 0 0 2.36-.18 5.49 5.49 0 0 0 2-.63 11.37 11.37 0 0 1 3.55-1.41 1 1 0 0 1 .68.09c.91.59 2 0 2.9.42a1.07 1.07 0 0 0 .42 0c.11-.92.33-1.75 1.49-1.79a.81.81 0 0 1 1 .79 2.91 2.91 0 0 0-.7-.24c-.54 0-.91.41-1 1.07-.06.9-.26 1.05-1.17.92l-.57-.07-.55-.11-.2.36c-.17.33-.35.37-.63.08a2.23 2.23 0 0 0-3.16-.25.67.67 0 0 0-.17.45c0 .59-.08 1.16-.7 1.44a1.31 1.31 0 0 0 1.24 1.07 1.26 1.26 0 0 1 .49.12c.86.52 1.55 0 2.25-.37.41-.23.8-.49 1.19-.75a1.34 1.34 0 0 1 1.85.13 1.35 1.35 0 0 0 1.14.24c.58-.2.73.13.95.5.42 0 .79-.08.84-.63 0-.08.11-.17.2-.23q2.76-2.07 5.53-4.13c1.06-.79 2.18-1.52 3.22-2.34a30.67 30.67 0 0 0 6.28-5.76 1.21 1.21 0 0 1 .21-.24c2.14-1.68 3.66-3.94 5.5-5.9a16.08 16.08 0 0 1 4.47-3.28 1.17 1.17 0 0 0 .55-.61 20.14 20.14 0 0 0 1.24-8.56 9.88 9.88 0 0 0-.52-1.78 1.9 1.9 0 0 1 1.53-.25 1 1 0 0 1 .56.69 18.74 18.74 0 0 1-.57 7.88l-.41 1.52a13.74 13.74 0 0 1 14.03 4.37 4.25 4.25 0 0 1 1.5 2.84l.33.23c-.61.51-1.16.38-1.69-.43a7.85 7.85 0 0 0-2.46-2.66c-1.17-.68-2.4-1.26-3.61-1.88-.13-.07-.29-.08-.42-.16a7.27 7.27 0 0 0-4.34-.8 6.25 6.25 0 0 0-1.88.34 23.8 23.8 0 0 0-6.36 3.36 19.82 19.82 0 0 0-3.67 4 21.44 21.44 0 0 1-1.57 1.74c-.74.86-1.44 1.74-2.18 2.6a4.8 4.8 0 0 1-.73.69l-4.84 3.8a1.39 1.39 0 0 0-.37.5c.82 0 1.64.47 2.39-.25l.13.12c-.09.3-.17.61-.2.73a6.2 6.2 0 0 1 .07.95c0 .06-.35.17-.37.14a9.5 9.5 0 0 1-.47-.85c-.14 0-.42 0-.71-.07s-.66 0-.8-.14c-.47-.56-.74-.17-1.13.1a1.61 1.61 0 0 0-.82 1.88h.42c.23.42.43.75.58 1.1a.49.49 0 0 1-.17.35 1.35 1.35 0 0 1-.74-.15c-.16-.12-.17-.42-.3-.79-.37.69-.85.58-1.38.41-.14 0-.46.18-.54.35a11.41 11.41 0 0 0-.48 1.39c-.09.28-.12.61-.53.6zm-11.81 6.61a7.72 7.72 0 0 1 1.49-.2.93.93 0 0 0 1-.54c.07-.13.28-.33.38-.3.83.19 1.29-.39 1.91-.77-.13-.24-.23-.44-.38-.71-.56.43-1.38.31-1.71 1.09-.06.14-.34.22-.52.28-.81.24-1.69.35-2.2 1.16-.7.12-.49-.46-.69-.82-.1.37-.19.75-.29 1.15.41.35.41.35 1.01-.34zm3.33-4.4a5.19 5.19 0 0 0 .56-.68c.08-.15.13-.43.05-.52a.71.71 0 0 0-.55-.18c-.17 0-.31.24-.49.27a3.61 3.61 0 0 1-.93.06c-.29 0-.6-.21-.86-.16a7.13 7.13 0 0 1-3.18.18 1.41 1.41 0 0 0-1.5.49c-.33.36-.77.6-1.11 1-.13.12-.21.48-.13.57.58.62 1.18 1.23 1.8 1.8a7 7 0 0 0 1.05.72 5.85 5.85 0 0 0 .71.35l.07-.14-.24-.47.09-.15.73.28 2-2.39a1.54 1.54 0 0 0-.08-.19c-.54.17-1.06.39-1.61.51a5.26 5.26 0 0 1-1.05 0v-.48a10.81 10.81 0 0 1 1.55-.51c.32-.08.77.09 1-.08a1.9 1.9 0 0 1 1.83-.1c-.14.12-.28.23-.42.36.87.4 1.41.13 1.68-.83zm-44.53-48.42l.2-.11c-.05-.17-.1-.34-.16-.51-.39-1.13-.77-2.26-1.18-3.38a.67.67 0 0 0-.39-.33.6.6 0 0 1-.5-.76c.17-.68-.27-1.08-.61-1.53-.16-.21-.42-.35-.6-.56-1.18-1.33-2.34-2.68-3.51-4-.61-.7-1.24-1.39-1.78-2l-.74.56-1.36-1.53-.16.14zm5 7.09a3.21 3.21 0 0 0-.72-2.35 5.69 5.69 0 0 1-.94-1c-.25-.4-.48-.41-.88-.19 0 .3-.05.72.12.92.77.89 1.62 1.75 2.42 2.65zm28.92 38.31c0 .07-.06.13-.08.19.38.13.13.73.89.72 1.31 0 1.58-1.29 2.52-1.74a5.24 5.24 0 0 0-1.52-.1c-.07 0-.12.18-.21.26a4.08 4.08 0 0 1-.8.58 2.59 2.59 0 0 1-.8.09zm4.47.82c-.55-.85-.76-.9-1.29-.36a3.17 3.17 0 0 1-2.14 1.25 8.9 8.9 0 0 0 .46.85c.11.16.3.4.43.38a2.13 2.13 0 0 0 .7-.38l-.24-.16-.58-.45.56-.23zM290.84 72.7l-.22.12 3.27 5.18.24-.15zm-4.42-7.49l-.21.13 3.15 5.35.19-.11q-1.57-2.68-3.13-5.37zm66.28 76.66c-.82-.79-1.62-.61-2.3.51zm-26.65-30.72l.14-.21-1.94-1.45-.12.15zm-41.74-50.16c.21 1.06.37 1.27 1.08 1.41z"></path><path d="M355.16 68.36c4.48 7.69 9.12 15.23 12 23.65a1.16 1.16 0 0 1 0 .39c-.14-.11-.26-.16-.31-.25-1.12-2.42-2.2-4.86-3.37-7.26-.95-2-2-3.87-3-5.79-1.17-2.15-2.37-4.28-3.58-6.41a34.82 34.82 0 0 0-4.3-6.26c-.72-.8-1.47-1.58-2.2-2.37l-.15.11a16 16 0 0 0 1.32 2 23.4 23.4 0 0 1 3.06 4.8c1.16 2.28 2.44 4.5 3.62 6.77 1 1.88 1.85 3.81 2.82 5.69.67 1.29 1.46 2.52 2.12 3.81.74 1.45 1.4 2.94 2.08 4.41a5.48 5.48 0 0 1 .34 1c.14.53.14 1-.48 1.3a.65.65 0 0 0-.14.63 10.81 10.81 0 0 0 1.12 2 10 10 0 0 1 1.63 4.79q.21 1.44.3 2.88a5.71 5.71 0 0 1-.18 1.21h-.27c-.08-.79-.13-1.59-.25-2.37-.31-2-.5-4-1.59-5.69-.38-.61-.82-1.19-1.14-1.83a5 5 0 0 1-.43-1.52.84.84 0 0 1 .31-.71c.47-.21.42-.53.28-.84-.45-1.06-.89-2.13-1.41-3.16-1.31-2.59-2.66-5.16-4-7.73-.88-1.68-1.79-3.34-2.68-5-.75-1.43-1.49-2.88-2.24-4.32a32.4 32.4 0 0 0-3.86-6 37.42 37.42 0 0 1-2.2-3.32 12.51 12.51 0 0 0-.94-1.13l-.28.15a3.69 3.69 0 0 0 .21.84c.54 1 1.14 2 1.68 3a8.76 8.76 0 0 1 .65 1.47c.07.21-.06.49-.11.73-.18-.14-.44-.25-.55-.44-.75-1.36-1.46-2.75-2.19-4.12 0-.06-.08-.1-.29-.13a2.37 2.37 0 0 0 .09.76c.84 1.85 1.71 3.68 2.55 5.52a1.56 1.56 0 0 1 0 .58c-.2-.11-.5-.17-.6-.34-.38-.62-.69-1.28-1-1.93s-.67-1.38-1-2.06c-.09-.15-.3-.24-.45-.36-.11.14-.29.27-.32.43a2.62 2.62 0 0 0 .13 1.74c.57 1.19 1 2.44 1.51 3.66.33.84-.05.9-.74 1l.81 1.79c-1.18.26-1.21.27-1.57-.75-.67-1.89-1.36-3.77-1.93-5.7a4.14 4.14 0 0 1 .14-3.18 3.28 3.28 0 0 0 0-1.7 8.89 8.89 0 0 0-.34-1.35c-.22-.79.33-1.37.54-2a2.58 2.58 0 0 1 .46-1c.71-.7 1.55-.54 2.28.32s1.34 1.5 2 2.25c.08.08.26.18.34.14.72-.29.84.35 1.14.71.14.16.25.34.39.5s.64.31.3.76c0 0 .23.26.35.4.48.54.87 1.29 1.47 1.57s.88.75 1.46 1.19c-.15-.53-.25-1-.37-1.36a4.6 4.6 0 0 1-.24-2.77 2.24 2.24 0 0 0-.1-1c-.23-1-.51-2.1-.71-3.17a9 9 0 0 1 0-1.26 12.74 12.74 0 0 0-.1-2c-.22-1.16-.56-2.29-.81-3.44a3.36 3.36 0 0 1 0-1.14 5.29 5.29 0 0 1 .32-1.44 1.19 1.19 0 0 1 .7-.56c.37-.12.84-.31 1.14.18.73 1.18 1.43 2.38 2.16 3.55.52.83 1.12 1.62 1.61 2.46 1.44 2.46 2.85 5 4.27 7.42a.32.32 0 0 0 .27.17c-.14-.66-.29-1.32-.42-2-.43-2.13-.88-4.26-1.27-6.41s-.66-4-1-6.07a17.76 17.76 0 0 1-.16-1.79c-.1-2-.2-4-.27-6a7.17 7.17 0 0 1 .17-1.53c.05-.3.15-.63.62-.55.07 0 .3-.31.29-.47 0-.9.73-.63 1.16-.78s.69.06.88.51c1 2.36 2.11 4.7 3.14 7.06.82 1.85 1.64 3.71 2.39 5.58 1 2.51 1.93 5 2.9 7.55.06.15.25.26.38.39.07-.18.23-.37.21-.54-.06-.52-.18-1-.28-1.57-.31-1.66-.61-3.32-.94-5a18.35 18.35 0 0 1 .09-5.18 15.05 15.05 0 0 1 .2-1.66 1.82 1.82 0 0 1 .36-1 3.18 3.18 0 0 0 .7-2.64 2.41 2.41 0 0 0-.14-1c-.4-.81.24-1.33.49-1.94.14-.37 1.3-.28 1.42.11q.6 2 1.11 4.08a15.41 15.41 0 0 1 .33 2.16c0 .22.41.7-.26.71a2.14 2.14 0 0 0 0 .44c.65 3.25 1.32 6.49 1.95 9.74.19 1 .25 2.08.4 3.12a4.79 4.79 0 0 0 .4 1.25c.09-1.13-.43-2.24.05-3.39a6.75 6.75 0 0 1 .5 1.26c.22 1.29.34 2.59.56 3.88.31 1.81.69 3.6 1 5.41.22 1.33.38 2.66.55 4 .22 1.78.44 3.57.63 5.35.14 1.32.25 2.65.36 4 .17 2.07.4 4.13.49 6.21.09 1.92 0 3.86 0 5.79 0 .76-.09 1.53-.15 2.3a3.42 3.42 0 0 1-.18.6h-.21c-.1-.9-.21-1.8-.29-2.71a3.5 3.5 0 0 0-.31-1.17 5 5 0 0 1-.11-1.9c0-1.1.07-2.21 0-3.31-.09-1.82-.25-3.64-.35-5.46-.07-1.16 0-2.33-.18-3.47-.19-1.35-.55-2.67-.83-4-.53-2.51-1.08-5-1.55-7.53-.28-1.47-.43-3-.65-4.45a4.81 4.81 0 0 0-.27-.68 2 2 0 0 1-.15-.47c-.24-1.89-.41-3.79-.71-5.67-.36-2.22-.81-4.43-1.27-6.63a12.65 12.65 0 0 0-1.45-3 1.38 1.38 0 0 0-.4-.4q.51 2.85.93 5.73a50.79 50.79 0 0 1 .92 5.87l-.37.07c-.83-2.88-1.24-5.85-2-8.77v4c.49.07.68.4.61.93a2.81 2.81 0 0 0 0 .58 10.71 10.71 0 0 1 .15 2.84 10.45 10.45 0 0 0 .14 2.6v1c0 .59-.05.61-.65.81.05.48.11 1 .17 1.59l-.72-.57a6.94 6.94 0 0 0 .12 1.1c.54 1.82 1.14 3.62 1.65 5.44.59 2.13 1.22 4.26 1.66 6.42.54 2.68 1 5.37 1.3 8.08a51.91 51.91 0 0 1 0 5.58c0 .57-.28 1-.86.94-.2 0-.4-.26-.6-.4.17-.11.33-.23.5-.33s.16 0 .24 0c.69-2.13-1.23-15.46-2.86-19.1.12.56.24 1.12.37 1.68.23 1 .48 2 .72 3 .16.73.36 1.46.45 2.2.3 2.46.57 4.93.85 7.4.09.89.18 1.78.22 2.68a8.36 8.36 0 0 1-.15 1.3h-.25a6.21 6.21 0 0 1-.24-.81c-.37-3.14-.6-6.3-1.12-9.42s-1.19-6-1.94-9c-.85-3.4-1.82-6.77-2.82-10.12a21.3 21.3 0 0 0-1.61-3.67c.15 1.82 1 3.49 1.14 5.3l-.24.09a5.87 5.87 0 0 1-.33-.73c-.6-1.9-1.11-3.83-1.79-5.7-.86-2.4-1.84-4.76-2.8-7.12a9.61 9.61 0 0 0-.83-1.57l-.27.12c.56 2.31 1.06 4.63 1.7 6.91s1.4 4.5 2.12 6.74l-.31.15a3.71 3.71 0 0 1-.52-.81c-.64-1.74-1.23-3.5-1.85-5.25-.11-.3-.25-.59-.38-.88l-.2.05c.24 1.09.43 2.19.72 3.27s.69 2.06 1 3.1c.05.16-.07.37-.11.56-.14-.12-.35-.22-.4-.37-.63-1.71-1.22-3.42-1.83-5.13a.47.47 0 0 0-.24-.28 3.07 3.07 0 0 0 .06.68c.31 1.31.6 2.63 1 3.93.16.55.56 1 .71 1.6a8.9 8.9 0 0 1 .06 1.47 6.64 6.64 0 0 0 .16.87c.3 1.44.59 2.89.9 4.33.09.39.24.77.36 1.15.32 1 .16 1.23-.88 1.43a1.75 1.75 0 0 1-.24 0c.23.93.42 1.85.69 2.73.61 1.93 1.31 3.83 1.9 5.77s1.19 4.14 1.76 6.22a20.27 20.27 0 0 1 .67 2.74 27.81 27.81 0 0 1 .17 3.17 2.12 2.12 0 0 1-.25.67h-.2a3.8 3.8 0 0 1-.22-.8 33.76 33.76 0 0 0-1.6-8c-.84-2.58-1.63-5.18-2.52-7.74-.82-2.36-1.75-4.67-2.62-7-.15-.39-.32-.61-.81-.46-.15 0-.51-.18-.6-.36-1.53-3.09-3-6.2-4.54-9.29a3 3 0 0 0-.4-.48l-.24.13.72 1.71c.89 2.06 1.79 4.12 2.67 6.19 0 .11-.06.28-.1.43-.17-.07-.43-.09-.5-.22-.34-.6-.61-1.23-.91-1.84a1.21 1.21 0 0 0-.41-.5 2.92 2.92 0 0 1 .07.39 6 6 0 0 1-.11.61 3.81 3.81 0 0 1-.55-.33 2.88 2.88 0 0 1-.31-.58c-.14.29-.3.47-.28.61a8.37 8.37 0 0 1 0 2 9.67 9.67 0 0 0 .41 2.63c.16.71.38 1.4.56 2.11.14.55-.15.9-.73 1a2.69 2.69 0 0 0-.72.23zm23.64-1.67h.35q-.68-3.6-1.34-7.2h-.22q.61 3.59 1.21 7.2z"></path><path d="M345 89.33c3.86 5.54 8.78 10.2 12.77 15.61l-.17.14a5.11 5.11 0 0 1-.73-.54c-1.4-1.56-2.78-3.13-4.17-4.69-2.18-2.45-4.4-4.87-6.53-7.37-1.16-1.36-2.16-2.86-3.23-4.3l-1.44-1.89c-.5-.68-1-1.37-1.52-2-.22-.28-.47-.53-.71-.79l-.17.13c.47.68.94 1.37 1.42 2 .78 1.1 1.59 2.18 2.34 3.29.11.18 0 .49 0 .74l-.27.09c-2.14-2.9-4.27-5.81-6.43-8.75-.62.62-.33 1.21-.17 1.79.71 2.6 2.64 4.44 4.11 6.57a2 2 0 0 1 .2.56c-.22 0-.52 0-.65-.14a20 20 0 0 1-3.4-4.38 1.94 1.94 0 0 0-.22-.4.59.59 0 0 0-.34-.22c-.09 0-.23.19-.24.31a3.62 3.62 0 0 0 0 1.18 8.54 8.54 0 0 0 1.92 3.7c.27.3.56.59.8.91a1.26 1.26 0 0 1 .11.49c-.19 0-.47.07-.57 0a14.76 14.76 0 0 1-1.52-1.64c-.66-.87-.78-.91-1.65-.27a2.23 2.23 0 0 1-.58.21c-.57 1 .38 1.5.89 2.06a23.92 23.92 0 0 0 6.22 4.77c1.45.81 2.91 1.62 4.3 2.53a31.89 31.89 0 0 1 7.14 6c1.2 1.44 2.37 2.92 3.56 4.38a4.6 4.6 0 0 0 .56.52c.34.29.3.53-.11.79-1.71-1.92-3.4-3.88-5.16-5.77a28.24 28.24 0 0 0-5.9-4.88q-2.52-1.53-5-3.09c-1.51-.94-3-1.9-4.41-2.78.7.62 1.52 1.33 2.33 2.06 1.94 1.71 3.85 3.46 5.81 5.14 1.7 1.47 3.48 2.85 5.18 4.31.94.8 1.81 1.68 2.68 2.56.13.13.07.45.1.68-.18 0-.41 0-.53-.15-1.58-1.38-3.13-2.8-4.72-4.16-3.13-2.68-6.29-5.34-9.44-8-1.22-1-2.44-2-3.7-3 1.23 1.91 2.36 3.9 4.41 5.17-.14.25-.3.35-.67.2a7.42 7.42 0 0 1-2.78-2.24c-1.13-1.28-2.16-2.66-3.23-4 0 0 0-.09-.08-.11l-.9-.54c0 .38-.07.86.12 1.13.76 1.13 1.57 2.24 2.44 3.29.71.85 1.53 1.61 2.3 2.41a.9.9 0 0 1 .23.52 3.39 3.39 0 0 1-1.62-1 19.88 19.88 0 0 1-3.75-4.28 2.74 2.74 0 0 0-.4-.5.23.23 0 0 0-.21 0c-.09.1-.22.24-.21.34a4.43 4.43 0 0 0 1.11 3c.75.7 1.42 1.49 2.12 2.24a.47.47 0 0 1 .12.38 2 2 0 0 1-.57-.2c-.52-.41-1-.84-1.5-1.3-.7-.67-.73-.69-1.92-.14.47.2.82.33 1.15.51a1.59 1.59 0 0 1 .44.42c.13.18.2.42.34.59s.58.19.34.61c0 0 .25.24.41.33 1.57.88 3.15 1.73 4.72 2.62 2.84 1.61 5.66 3.26 8.5 4.88 1.79 1 3.62 2 5.4 3 1.46.85 2.87 1.78 4.35 2.7-.08.17-.14.33-.19.43l-24.52-13.69-.18.22a7.5 7.5 0 0 0 1 1 40 40 0 0 0 4.7 3c2.25 1.09 4.29 2.53 6.48 3.71 1.35.73 2.68 1.51 4 2.32 1.72 1.07 3.41 2.19 5.11 3.29.22.14.47.21.68.36s.13.22.19.34c-.13 0-.28.18-.37.14a7.61 7.61 0 0 1-1.46-.64c-2.32-1.41-4.59-2.89-6.92-4.27-1.8-1.07-3.67-2-5.49-3-2-1.13-3.95-2.29-5.88-3.51a27.37 27.37 0 0 1-2.51-2c-.13-.11-.17-.34-.28-.49-.43-.61-.87-1.2-1.37-1.9-.31 1.27.56 1.88 1.11 2.55a22.06 22.06 0 0 0 4.74 4.3 3.39 3.39 0 0 1 .31.33c-.59.45-1-.22-1.46-.19-.35.65-.53.73-1.2.15-1.23-1-2.41-2.16-3.58-3.28-.45-.43-.79-1-1.22-1.42a1.94 1.94 0 0 0-.92-.45c.3 1.35.49 2.7 1.51 3.69a14.09 14.09 0 0 0 5.73 3.42c.73.22 1.41.63 2.14.84s1.54.29 2.31.45a3.3 3.3 0 0 1 1.08.41c-2.62 1-4.87-.41-7.29-1.2 0 .35 0 .49.05.71-.42 0-.93.16-1.25 0a16.05 16.05 0 0 1-3.65-2.41 8.46 8.46 0 0 1-2.35-3.59 8 8 0 0 1-.18-2.54c0-.37.53-.71.8-1.07.14-.2.34-.42.34-.64 0-.74.08-1.5.82-1.82a2.46 2.46 0 0 1 2.68.09 5.6 5.6 0 0 0 .49.31c-.09-.46-.19-.81-.22-1.16a9.22 9.22 0 0 1 .87-5.35 1.44 1.44 0 0 1 .72-.68 1.46 1.46 0 0 0 1-1.38c.15-.94.38-1.21 1.29-1.39.35-.07.71-.11 1.07-.17.25-2.16.48-4.33.74-6.49a3 3 0 0 1 2.55-2.5 1 1 0 0 1 .65.18c.42.37 1.18.23 1.27 1.16.06.53.8 1 1.32 1.45-.16-.38-.33-.75-.47-1.14a3.2 3.2 0 0 1-.07-2.89c.13-.22 0-.58 0-.88s-.18-.88-.22-1.32a1 1 0 0 1 .8-1.22.63.63 0 0 0 .33-.48c.05-.73 0-1.46 0-2.19 0-.18 0-.49.12-.53.84-.35 1.43-1.17 2.39-1.25a.59.59 0 0 1 .47.26c.45.77.87 1.56 1.31 2.35a12.73 12.73 0 0 1 .79 1.39c1 2.48 3 4.27 4.7 6.29 1.79 2.18 3.79 4.18 5.55 6.38 2 2.57 4 5.23 5.87 7.93a9.51 9.51 0 0 1 1.86 3.91 1 1 0 0 1 .05.51c-.45 1.22.23 2.19.69 3.21.61 1.36 1.2 2.73 1.78 4.11a2.69 2.69 0 0 1 .1.7l-.19.08a4.31 4.31 0 0 1-.39-.56c-.9-1.89-1.8-3.78-2.65-5.69a2.39 2.39 0 0 1-.21-1.31 3.66 3.66 0 0 0-.63-2.62c-1.41-2.22-2.8-4.45-4.4-6.53-2-2.65-4.27-5.16-6.42-7.72l-3.7-4.43c-.05 0-.13-.08-.31 0 .73 1.21 1.45 2.43 2.2 3.64 1.16 1.89 2.31 3.79 3.53 5.65.89 1.35 1.85 2.65 2.82 4a26.75 26.75 0 0 1 3 5.26 1 1 0 0 1 .14.49c-.14 1.26.81 2.06 1.3 3 .83 1.63 1.86 3.17 2.76 4.76.56 1 1.06 2 1.56 3a2.64 2.64 0 0 1 .11.71l-.2.09c-.19-.28-.4-.54-.58-.84-1.18-2-2.35-4.07-3.54-6.09-.71-1.21-1.44-2.41-2.16-3.62a.56.56 0 0 1-.09-.17c-.28-2.52-1.84-4.4-3.23-6.36a81.18 81.18 0 0 1-5.19-8c-.52-1-1.22-1.79-1.82-2.71-.27-.42-.46-.9-.74-1.32a1.38 1.38 0 0 0-.5-.38c-.26-.15-.64-.2-.79-.42-.93-1.38-1.81-2.8-2.73-4.19-.09-.14-.39-.15-.59-.23-.12.36-.44.79-.34 1a23.77 23.77 0 0 0 1.29 2.51 8.85 8.85 0 0 1 .48.83c.06.15 0 .36-.06.54-.19 0-.46 0-.54-.14-.43-.61-.8-1.27-1.22-1.89a1.78 1.78 0 0 0-.38-.34c-.07.17-.21.34-.19.49a3.13 3.13 0 0 0 .26.89c.28.62.62 1.22.89 1.85.06.14-.08.37-.12.56-.16-.1-.38-.16-.47-.3-.37-.56-.69-1.15-1.09-1.82-.46 1.13.31 1.8.66 2.54.75 1.57 1.59 3.08 2.39 4.62.13.24.25.46-.07.73-.09.08 0 .62.22.8 1.26 1.31 2.57 2.58 3.86 3.86 2.47 2.47 5 4.91 7.42 7.43a30.9 30.9 0 0 1 5 7.63c.15.28.36.53.49.83a1.43 1.43 0 0 1 0 .51c-.15-.09-.36-.14-.44-.26-.77-1.18-1.54-2.36-2.28-3.56a33.34 33.34 0 0 0-5.29-6.66c-2.46-2.4-5-4.76-7.45-7.14 0-.04-.06-.06-.11-.1zm-1.87-16.25l-.19.11 1.6 2.46.18-.12zM383.36 107.39c-.85-.3-1 .53-1.57.72a2.25 2.25 0 0 1-.38-2.3c.33-1.66.8-3.3 1-5a8.79 8.79 0 0 0-.24-3.1 11.67 11.67 0 0 1 0-5.16 10 10 0 0 1 .51-2.57c.75-1.43.49-2.94.6-4.41.26-3.46.43-6.93.61-10.39v-2.63c-.13.15-.35.38-.69.74a7.72 7.72 0 0 1-.15-1c-.06-4.9 0-9.82-.2-14.72-.14-3.5-.56-7-.87-10.49-.14-1.54-.31-3.07-.48-4.6a2.18 2.18 0 0 0-.29-1 4.16 4.16 0 0 0-.12.69 7 7 0 0 0 .49 3.53 1.05 1.05 0 0 1 .11.43c.15 2.14.31 4.27.42 6.41.09 1.73.12 3.46.15 5.2a3.69 3.69 0 0 1-.21.84h-.24a2.33 2.33 0 0 1-.12-.49c-.11-2-.19-4-.31-6 0-.24-.22-.46-.32-.69a4.94 4.94 0 0 1-.32-.8c-.38-1.76-.73-3.51-1.19-5.28 0 .39-.09.77-.1 1.16v5.28c0 .51.05 1-.7.93-.11 0-.23.09-.48.19v-1.72c.11-3.08.16-6.17.38-9.25a27.13 27.13 0 0 1 .84-4.33 2.18 2.18 0 0 1 2.16-1.5 1.5 1.5 0 0 1 1.06.59 4 4 0 0 1 .83 2.1 6.47 6.47 0 0 0 .05 1.87 57.61 57.61 0 0 0 1.42 6.71 22.37 22.37 0 0 1 1 4.95c.3 3 .51 6 .6 9.07.06 1.83-.17 3.67-.27 5.51-.07 1.43-.09 2.87-.2 4.3-.18 2.26-.44 4.51-.61 6.76-.08 1 0 2.06-.06 3.09-.15 3-.35 6.08-.47 9.12a11.58 11.58 0 0 0 .36 1.79 26.32 26.32 0 0 1 .23 3.19 31 31 0 0 1-.26 4.21c-.3 2-.72 4.08-1.15 6.11a11.81 11.81 0 0 1-.82 1.94zm-1-64.34l1.24 10.75h.16a46.91 46.91 0 0 0-1.37-10.72zm.54 50.42h-.14a5.67 5.67 0 0 0-.25 1.5c.06.65-.36 1.55.84 1.88-.12-1.18-.27-2.28-.42-3.38zm2.7-38.54c-.07-1.28.32-2.6-.35-3.83.1 1.27.21 2.55.35 3.83zM302.1 96.32l-.44-1.16.21-.13c.58.88 1.18 1.74 1.74 2.63s1.15 1.85 1.66 2.81 1 2 1.38 3a26.17 26.17 0 0 1 1.11 3.07c.29 1 .41 2.12.61 3.28-.8-.32-.95-1-1.14-1.66-.24-.84-.38-1.71-.6-2.56a.76.76 0 0 0-.45-.39 7.09 7.09 0 0 0-.94-.15l-2.08-.27a2.56 2.56 0 0 1-.68-.13c-.14-.06-.22-.25-.32-.38a1.2 1.2 0 0 1 .44-.2 6.14 6.14 0 0 1 3.42.61h.24c-.36-.91-.71-1.79-1.07-2.67a.47.47 0 0 0-.34-.24 7 7 0 0 1-3.64-1.22c-1-.56-1.89-1.15-2.82-1.75a.87.87 0 0 1-.35-.59 5.16 5.16 0 0 1 .66.23c1.27.66 2.51 1.38 3.8 2a15.66 15.66 0 0 0 2 .66l.13-.15c-.3-.56-.6-1.14-.92-1.7s-.34-1.12-1.12-1.07c-.1 0-.23-.13-.3-.23a16.53 16.53 0 0 0-5.12-4.1c-1.72-1-3.45-1.91-5.17-2.86a4.33 4.33 0 0 1-1.92-2 5.21 5.21 0 0 0-2.32-2.3c-.89-.51-1.7-1.14-2.54-1.74-1.61-1.16-3.18-2.37-4.81-3.5a23.68 23.68 0 0 1-4.59-4.18c-1.29-1.51-2.66-3-3.86-4.54a34.53 34.53 0 0 1-1.8-3.14 31.22 31.22 0 0 0-2-3 12.94 12.94 0 0 1-2.29-4.52 21.45 21.45 0 0 1-.72-3.25 14.15 14.15 0 0 1 .07-2.68.68.68 0 0 1 .32-.43c.06 0 .25.15.41.24l.45-.33a2.38 2.38 0 0 1 .26.44 24.1 24.1 0 0 0 1.06 2.8c.76 1.48 1.61 2.91 2.49 4.32.76 1.21 1.66 2.33 2.41 3.54a4.77 4.77 0 0 1 .32 1.51l-.8-.5a5.42 5.42 0 0 0 1.14 1.88 24.26 24.26 0 0 1 1.73 2.36 40.81 40.81 0 0 0 5.29 6c1.49 1.3 2.9 2.69 4.36 4a17 17 0 0 0 1.45 1.24c.38.28.48.57.31.83l3.71 3.4c.17.15.4.31.46.51.53 1.63 1.91 2.29 3.28 3q2.94 1.61 5.79 3.39a24 24 0 0 1 2.35 1.94z"></path><path d="M275.1 66.56l-.21-.89.23-.19.51 1 .22-.19c-.07-.2-.14-.41-.2-.61l.12-.1c.56.59 1.15 1.14 1.66 1.76 1.94 2.32 3.86 4.66 5.78 7a6.63 6.63 0 0 1 .92 1.15 15.92 15.92 0 0 1 .68 1.78l-.25.16q-2.85-3.25-5.71-6.5l-.15.13 5.09 6.18c-.25.26-.07.54.27.82 2 1.64 4 3.3 5.93 5 2.29 1.91 4.61 3.78 6.82 5.78a26 26 0 0 1 2.62 3.1 1.69 1.69 0 0 1 .14.66 1.31 1.31 0 0 0-.52 0c-.67.29-.94-.26-1.32-.6-1.33-1.2-2.68-2.39-4-3.59-1.88-1.7-3.8-3.37-5.64-5.12-2.13-2-4.29-4-6.27-6.23-2.22-2.41-4.22-4.98-6.22-7.49-1.52-1.92-3-3.91-4.32-6-1-1.58-1.85-3.31-2.76-5-.79-1.46-1.65-2.88-2.37-4.37-.47-1-.74-2-1.11-3.07l.29-.15.63.93v-.84l.17-.08c2.72 5.33 5.34 10.71 9 15.47.64.86 1.28 1.73 1.91 2.6l.21-.15c-.67-.83-1.35-1.65-2-2.47-.05.07-.11.1-.15.12zm17 18.91l-.16.17 3.55 3.12.12-.14zM267.38 67.93l.35.6.4-.74c.25.61.43 1.09.65 1.55a10.51 10.51 0 0 0 .65 1.07c.27.41.54.81.83 1.21a59.42 59.42 0 0 0 6.53 8 12 12 0 0 1 .9 1.22 18.8 18.8 0 0 0 1.8 2.15 44.53 44.53 0 0 1 3.61 3.53 7.26 7.26 0 0 0 3.34 1.94 5 5 0 0 1 2.12 1.8c.8.9 1.45 1.95 2.28 2.82a13 13 0 0 0 2.09 1.57c1 .72 2.11 1.41 3.13 2.19a11.72 11.72 0 0 1-1.31-.56c-1.16-.63-2.33-1.23-3.43-2a8.73 8.73 0 0 1-1.6-1.56c-.69-.78-1.35-1.59-2-2.41a5.56 5.56 0 0 0-2.15-1.46c-1-.47-1.9-1-2.87-1.54a4 4 0 0 0-1-.22l-.06.16 2.35 2.24-.16.26a3.29 3.29 0 0 1-.84-.34 68.1 68.1 0 0 1-9.93-9.27c-1.21-1.49-2.42-3-3.57-4.51a3.39 3.39 0 0 1-.68-2.25c0-.76-.59-1.52-.89-2.3s-.59-1.59-.83-2.4a2.26 2.26 0 0 1 .09-.75zM276.11 86.95l.21.84c.47 2.23 2.18 3.37 3.9 4.53a10.92 10.92 0 0 0 3.42 1.42 10.09 10.09 0 0 1 3.49 2 .83.83 0 0 1 .24.55c-1 0-1.73-.89-2.76-.94l1.9 1.07a1.3 1.3 0 0 1 .84.81 1.79 1.79 0 0 1-.6.05 21.1 21.1 0 0 1-9.18-5.57c-1.52-1.62-3.14-3.16-4.61-4.82a6.88 6.88 0 0 1-1.44-2.48 28.48 28.48 0 0 1-.65-3.71c-.08-.45-.19-.9-.28-1.35l.22-.11c.22.36.45.71.68 1.08 0-.34-.06-.66-.1-1l.16-.08c.16.2.4.37.46.59a5.6 5.6 0 0 0 1.4 2.26 7.43 7.43 0 0 1 1.14 1.62 9.92 9.92 0 0 0 2.85 3.09c1.87 1.65 3.79 3.23 5.7 4.84-.35.35-.58.4-1.1 0-.83-.61-1.62-1.27-2.4-1.94-1-.82-1.94-1.67-2.91-2.5a2.68 2.68 0 0 0-.58-.25z"></path><path d="M292.24 102.99a7.26 7.26 0 0 1-1.32 0 34 34 0 0 1-3.35-.78 12.14 12.14 0 0 1-2.21-1 3.74 3.74 0 0 0-2-.59 5.07 5.07 0 0 1-4-1.53v.49l-.14.13c-.35-.38-.69-.75-1.05-1.12s-.5-.43-.74-.65c-1-.89-2.11-1.63-2.29-3.17a31.29 31.29 0 0 0-.79-3.55c-.15-.63-.05-.76.56-.67a.45.45 0 0 0 .23 0c.52-.22.71.07.77.51s.35.63.6.94c.76.91 2 1.47 2.27 2.79.08.36.58.66.94.9a36.36 36.36 0 0 0 8.19 4.18c1.45.51 2.9 1 4.34 1.56 1.06.42 2.09.92 3.14 1.38a2.51 2.51 0 0 1 0 .27 2.47 2.47 0 0 1-.77 0c-1.31-.45-2.62-.93-3.91-1.43-2.28-.89-4.59-1.73-6.83-2.74-1.53-.69-2.94-1.63-4.41-2.46a3.27 3.27 0 0 0-.33-.14l-.16.14a3.91 3.91 0 0 0 .71.88 13.61 13.61 0 0 0 3.38 2c1.9.53 3.47 1.71 5.32 2.29 1 .3 2 .51 3 .78a10.27 10.27 0 0 1 1 .37 2.25 2.25 0 0 0-.15.22zM274.29 59.57l.37.68-.17.16a6.89 6.89 0 0 1-.82-.6 26.54 26.54 0 0 1-5.37-7.12 20.86 20.86 0 0 0-1.76-2.38 36.51 36.51 0 0 1-2.12-3.23 6.38 6.38 0 0 1-.61-2.13c0-.35.07-.88.72-.57.08 0 .22-.09.32-.07s.41.06.48.18c.52.89 1 1.82 1.52 2.71.74 1.24 1.54 2.45 2.28 3.7.87 1.47 1.67 3 2.56 4.43.55.88 1.23 1.69 1.85 2.53.28.39.58.77.83 1.19.08.14 0 .37 0 .56zM323.6 201.34h-1.5l-.05-.13a2.54 2.54 0 0 1 .52-.2 2.08 2.08 0 0 0 1.81-2.15c0-1-.12-2-.2-3.17.2.2.49.36.54.58a16.57 16.57 0 0 1 .33 1.89c0 .18 0 .36.07.69a2.93 2.93 0 0 0 .93-2 15.47 15.47 0 0 0 0-1.67 3.11 3.11 0 0 1 1.51-2.71 8.1 8.1 0 0 1 3.19-1.07 3.79 3.79 0 0 1 2.87.82c.1.06.09.27.13.41-.16 0-.35.14-.49.1a6.43 6.43 0 0 0-1.61-.56 9.25 9.25 0 0 0-2.26.31 3.36 3.36 0 0 0-2.33 1.58 1.71 1.71 0 0 0-.23.91 8.39 8.39 0 0 1-1.09 4.46c-.37.7-.69 1.43-1 2.06.16.1.47.25.45.31-.07.29 0 .74-.51.74a9.24 9.24 0 0 0-1.29 0 1.88 1.88 0 0 0-1.41 1.08 18.94 18.94 0 0 1-1.47 2c.17.08.43.23.7.33a.72.72 0 0 0 1.06-.46 2 2 0 0 1 2.54-1.24c.1 0 .24.1.25.16s0 .29-.12.32a1.46 1.46 0 0 1-.64.15 1.28 1.28 0 0 0-1.38.83c-.2.49-.39 1.09-1 1.06a2.17 2.17 0 0 1-1.83-.89c-.09-.14-.32-.18-.5-.26a5.79 5.79 0 0 1-.67-.31c-.06 0-.07-.24 0-.34a.32.32 0 0 1 .28-.08c.87.3 1.35-.3 1.85-.81a3.82 3.82 0 0 0 .59-.75 1.06 1.06 0 0 0 0-.56 3.5 3.5 0 0 0-.14-.46 1.88 1.88 0 0 1 .46-.14 2 2 0 0 0 1.64-.83zM326.45 143.63c.28-.63.46-1.08.67-1.52s.25-.61-.23-.81c-.79-.31-1.55-.68-2.4-1.06l-.44.46a2.16 2.16 0 0 1-.21-.37 2.57 2.57 0 0 0-2.18-2.06 1.32 1.32 0 0 1-1-1.41 8 8 0 0 0-.84-3.65.81.81 0 0 1-.05-.31c0-.08 0-.16.18-.29a14.5 14.5 0 0 1 1 1.9 8 8 0 0 1 .39 2.06c0 .64.18 1 .92 1a2.15 2.15 0 0 1 .57.11c0-.36-.08-.66-.11-.95l.14-.1a4.41 4.41 0 0 1 .45.52 8.23 8.23 0 0 0 2.08 2.64 4 4 0 0 0 1.35.66c1.16.28 1.51 1 .95 2-.37.7-.33.72.39 1.05a24.54 24.54 0 0 1 2.5 1.28.88.88 0 0 1 .25.76 3.38 3.38 0 0 1-.5.85c-.1-.13-.31-.3-.28-.37.23-.53 0-.73-.48-.92s-1.16-.56-1.74-.85l-.15.23a5.47 5.47 0 0 0 .89.65c.63.29 1.09 1.21.71 1.76a1.47 1.47 0 0 1-1.13.49c-.37 0-.27-.36 0-.61a2.18 2.18 0 0 0 .3-.59 2.31 2.31 0 0 1-.59-.14c-.21-.1-.56-.28-.55-.41 0-.77-.48-1-1-1.05a1.73 1.73 0 0 1-1.47-1.24c-.08-.18 0-.44.09-.66.2.11.5.17.56.34a.84.84 0 0 0 .96.61zM264.04 31.67l.67 1h.1l-.12-.91.13-.07a14.69 14.69 0 0 1 .87 1.48c1.18 2.69 2.31 5.41 3.53 8.08.56 1.2 1.33 2.3 1.94 3.47a7.13 7.13 0 0 1 .46 1.53.31.31 0 0 1-.13.25.51.51 0 0 1-.33-.13 23.16 23.16 0 0 1-4.77-7.79c-.63-1.61-1.31-3.2-1.92-4.81-.25-.65-.39-1.34-.59-2zM381.78 126.08c-.14.19-.29.37-.46.59l3.73 2.69c-.12.37-.45.54-.92.27a10.72 10.72 0 0 1-1.89-1.18 1.53 1.53 0 0 0-1.52-.34c-1 .21-2.36.67-3.37.23-.37-.16-.62-.43-.17-.63a4.2 4.2 0 0 1 1.37-.12 2.38 2.38 0 0 0 1-.38 3.22 3.22 0 0 0 1.37-1.84 5.54 5.54 0 0 1 1.63-2.71 3.3 3.3 0 0 1 2.76-.65 6.09 6.09 0 0 1 3.25 1.92c.4.41.9.71 1.33 1.09.13.12.15.36.22.54-.22 0-.49.19-.64.11a7.59 7.59 0 0 1-1.11-.85 6.45 6.45 0 0 0-2.73-1.72 2.51 2.51 0 0 0-3.18 1.4c-.23.51-.43 1.05-.67 1.58zM373.28 95.08c-.15-.58-.3-1.16-.43-1.74-.55-2.48-1.13-5-1.64-7.44a65.77 65.77 0 0 0-2.93-9.18c-.9-2.46-1.84-4.9-2.75-7.36a1.52 1.52 0 0 1 .07-.62 2 2 0 0 1 .35.41c.52 1.15 1.06 2.28 1.5 3.45q1.44 3.77 2.79 7.56c.59 1.66 1.16 3.34 1.61 5 .4 1.52.62 3.1.93 4.64.19.9.45 1.77.61 2.67a18.41 18.41 0 0 1 .19 2.1 1.34 1.34 0 0 1-.13.45z"></path><path d="M382.29 126.21c.51-.54.73-1.2 1.2-1.78a2.28 2.28 0 0 1 2.81-.46c.27.18.57.3.83.49a1.58 1.58 0 0 1 .54 2 2.49 2.49 0 0 1-2.46 1.43 11.86 11.86 0 0 1-1.77-.91c-.21-.11-.38-.22-.58-.35s-.57-.42-.57-.42zm2.05.07s.16-.16.18-.19c.18-.23.83-.84.47-1.13-.18-.14-.43.09-.54.22a.72.72 0 0 0-.19.52 1.65 1.65 0 0 0 0 .31 1.26 1.26 0 0 1 .08.27zm2.75.15l.16-.18-.57-.62c-.12.3-.19.45-.27.65zM306.49 111.31a2.14 2.14 0 0 0-2.26-.81 12.12 12.12 0 0 1-3.37-.29 9.65 9.65 0 0 1-3.77-1.52 5.17 5.17 0 0 0-4.27-.41 8.55 8.55 0 0 1-2.21.1c-.1 0-.21-.22-.28-.35a.5.5 0 0 1 .25-.21c1.07-.2 2.13-.4 3.2-.57a4.83 4.83 0 0 1 3.56.66 10.45 10.45 0 0 0 5.49 1.71 9.93 9.93 0 0 0 1.52-.16v-.22c-.38-.07-.77-.12-1.15-.21s-.83-.07-.89-.72a4.49 4.49 0 0 1 2.62.29h.06c.18.83 1 1.06 1.5 1.56s.42.69 0 1.15zM381 93.76a8.19 8.19 0 0 1 .27 1.53c0 2.66-.14 5.33-.22 8a.63.63 0 0 1-.05.31 2.64 2.64 0 0 1-.35.4c-.08-.15-.23-.31-.23-.46 0-1.15.06-2.31.1-3.47a2 2 0 0 0-.1-.28c-.25 1.32-.51 2.48-.69 3.66-.12.75-.13 1.52-.22 2.28 0 .13-.18.24-.27.36-.12-.12-.34-.25-.34-.37a14.84 14.84 0 0 1 .11-2.11c.26-1.84.59-3.67.86-5.51.08-.53 0-1.08.12-1.6.21-.92.51-1.82.77-2.72zM275.11 58.24a172.92 172.92 0 0 1 11.34 16.07l-.19.16c-.73-.86-1.52-1.67-2.18-2.58-1.85-2.58-3.65-5.2-5.47-7.8L275.06 59a2.26 2.26 0 0 1-.19-.64zM376.3 93.79a6.92 6.92 0 0 1 1.07 3.27 6.82 6.82 0 0 1 .06 1.28c0 .6 0 1.23-.65 1.64s-.57 1.14-.56 1.74a8.59 8.59 0 0 0 .41 2 .7.7 0 0 1-.46 1 1.38 1.38 0 0 0-.9 1 10.81 10.81 0 0 1 1.12.52.53.53 0 0 1 .14.43.42.42 0 0 1-.33.23c-.48-.1-.58.21-.72.54a10.73 10.73 0 0 1-.67 1.36.63.63 0 0 1-.54.23.67.67 0 0 1-.33-.47 4 4 0 0 1 .06-1.25c.25-1 .28-2.12 1.09-2.76s.68-1.49.54-2.36a3.06 3.06 0 0 1 .77-2.88 2.82 2.82 0 0 0 .46-1.92 21.52 21.52 0 0 0-.46-2.84l-.1-.76zM377.08 154.36a48.49 48.49 0 0 1-6.48 15.36l.13.11c.32-.28.64-.58 1-.84s.55-.38.64-.31c.38.27.1.56-.13.79s-.8.69-1.17 1.07a1.28 1.28 0 0 0-.34.65c-.1.43-.06.9-.19 1.31a1.27 1.27 0 0 1-.59.62c-.13.08-.38 0-.58-.08.08-.16.11-.36.23-.46.58-.48.32-1.09.3-1.67a2 2 0 0 1 .11-1c.84-1.63 1.75-3.22 2.58-4.85.59-1.18 1.12-2.4 1.63-3.62.92-2.24 1.81-4.49 2.71-6.74a3.48 3.48 0 0 1 .15-.34zM339.23 158.38a14.1 14.1 0 0 0 0-1.72c-.09-.79-.23-.85-1-.68a1.32 1.32 0 0 1-1.64-1.31c0-.39.15-.7.59-.68s.55-.27.51-.66a1.47 1.47 0 0 0-2-1.48 1.08 1.08 0 0 1-1.23-.68 2.93 2.93 0 0 1-.29-2.58c.36-1 .69-2 1-2.94 0-.06.07-.1.27-.12 0 .26-.06.52-.12.78-.23 1.13-.5 2.24-.69 3.38a1.7 1.7 0 0 0 .22.91.64.64 0 0 0 .82.39 2.25 2.25 0 0 1 2.57 1.35 2.64 2.64 0 0 1-.55 2.77c.27 0 .44 0 .61-.05.77-.14 1.3.12 1.4.9a10.44 10.44 0 0 1-.08 2.16c0 .12-.18.23-.28.34zM328.39 135.51c-1.58-1.47-3.43-2.68-4.26-4.83a8.25 8.25 0 0 0-.92-2.07 17.45 17.45 0 0 0-2-2 8.25 8.25 0 0 1-.93-.94c-.17-.22-.36-.66-.26-.81.52-.81-.22-1.26-.42-1.86a3.63 3.63 0 0 0-.28-.51l.16-.18a3.67 3.67 0 0 1 .74.53c.56.64 1.17 1.27.82 2.26 0 .1.08.32.19.42a8.45 8.45 0 0 0 1.64 1.42 4.26 4.26 0 0 1 1.92 2.85 7 7 0 0 0 1.53 2.7c.75.79 1.45 1.62 2.16 2.45a1.53 1.53 0 0 1 .14.47zM370.73 94.55c-.46 1.32.63 2.36.89 3.61a12.24 12.24 0 0 1 .37 1.86c.08 2 .1 3.92.11 5.88 0 .2-.27.39-.42.59a2.59 2.59 0 0 1-.23-.64c-.14-2.2-.21-4.41-.42-6.6a11.66 11.66 0 0 0-.74-2.23 4.85 4.85 0 0 1-.32-1.23c-.07-1.1-.09-2.21-.09-3.32 0-.19.16-.38.24-.57.14.17.37.31.4.49.08.69.14 1.37.21 2.16zM320.79 155.28c-.26-.21-.07-.49.12-.9.5-1 .83-2.16 1.32-3.2.41-.86.92-1.72 2-1.83a.93.93 0 0 1 .5 0 3 3 0 0 1 .53.43c-.19.11-.38.33-.57.32-.94 0-1.32.73-1.64 1.34-.58 1.14-1 2.36-1.48 3.58l1.12.31c-.34.24-.51.44-.72.49a1.34 1.34 0 0 0-1 1.4c0 .56.06 1.12 0 1.67a2.82 2.82 0 0 1-.44 1 .29.29 0 0 1-.48-.27c.42-.74.08-1.51.13-2.26a10.85 10.85 0 0 1 .61-2.08zM327.02 129.65a6.15 6.15 0 0 1-1-.72 44 44 0 0 1-6.48-8.61c-.5-.88-.89-1.83-1.31-2.76-.06-.12 0-.3 0-.45l.16-.07a3.58 3.58 0 0 1 .29.39 69.44 69.44 0 0 0 8.52 11.93 2.44 2.44 0 0 1-.18.29zM297.4 104.08a7.77 7.77 0 0 0 2.75 1.39c.16 0 .36-.16.53-.25a3.56 3.56 0 0 1 1-.46c.28 0 .58.21.87.33.82.35 1.66.67 2.46 1.07a8.21 8.21 0 0 1 1.45 1c.09.07 0 .36 0 .56-.17-.07-.35-.11-.5-.19l-2.65-1.45a2.62 2.62 0 0 0-.82-.33 1.51 1.51 0 0 0-.93.12 1.71 1.71 0 0 1-2 .18c-.84-.48-1.73-.9-2.57-1.4-.22-.13-.32-.44-.56-.79l-.44-.09c0-.62.4-.92 1.17-.84a2.63 2.63 0 0 1 .69.13 2.56 2.56 0 0 1 .53.35 5.55 5.55 0 0 1-.49.48 2.11 2.11 0 0 1-.49.19zM397.05 124.93c-.45.2-.79.36-1.14.49a1.29 1.29 0 0 0-.92 1.1c-.14 1-.75 1.5-1.92 1.63a1 1 0 0 0-.68.37c-.09.1-.17.23-.25.34a.47.47 0 0 0-.13.35c0 .37.58.32.84.3a6 6 0 0 0 1.12-.15.65.65 0 0 1 .85.33 3.83 3.83 0 0 1 .63 1.26c0 .07 0 .18-.05.23a1 1 0 0 1-.56 0 .48.48 0 0 1-.38-.36c-.22-.83-.77-.65-1.37-.55a1.86 1.86 0 0 1-1.15-.11c-.32-.18-.72-.62-.71-.93a1.92 1.92 0 0 1 1.14-1.84 1 1 0 0 1 .37-.12 1.55 1.55 0 0 0 1.47-1.39 1.9 1.9 0 0 1 2.84-.95zM373.32 137.91c-.6.77-1.13 1.37-1.59 2-.7 1-1.36 2.06-2.05 3.08s-1 1.22-2.18.61a.82.82 0 0 0-.27 0 12.9 12.9 0 0 0-.32 1.26 1.9 1.9 0 0 1-.91 1.25c-.79.56-1.51 1.19-2.29 1.75a2 2 0 0 1-.76.2c.11-.22.15-.51.32-.66.81-.68 1.68-1.29 2.47-2a3.16 3.16 0 0 0 .61-1.08c.1-.25.1-.55.19-.81.23-.66.5-.77 1.17-.51.89.34 1 .27 1.6-.54.81-1.19 1.62-2.39 2.49-3.53a2 2 0 0 1 1.52-1.02zM374.77 153.55c-1.08.12-1.1.11-1.2 1.13a1 1 0 0 1-.86 1 9.4 9.4 0 0 0-1.45.66 1.44 1.44 0 0 1-.51 0c.05-.16 0-.41.15-.48a5.53 5.53 0 0 1 1.27-.72 1 1 0 0 0 .81-1.07c0-.94.05-.9 1-1.13a1.28 1.28 0 0 0 .68-.69 19.92 19.92 0 0 0 .65-2.12 2.15 2.15 0 0 1 1.5-1.07c0 .1 0 .22-.11.28a5.43 5.43 0 0 0-1.31 2.85 1.11 1.11 0 0 0 .69 1.21 2.13 2.13 0 0 1 .54.38l-.16.24-.74-.33-1.09 1.5c-.61-.72.32-1.11.14-1.64zM292.2 97.57c-1.14-.52-2.29-1-3.41-1.58a1.45 1.45 0 0 1-.95-1.33c0-.25-.26-.53-.47-.72s-.69-.51-1-.78-.79-.74-.55-1.43-.38-.75-.76-1a6.31 6.31 0 0 1-.63-.53 2.69 2.69 0 0 1 .94 0c.8.35 1.57.76 1.34 1.89 0 .17.22.44.39.6.37.35.79.65 1.17 1a.78.78 0 0 1 .28.41c.05 1.18 1 1.45 1.82 1.9.58.32 1.18.6 1.75.93.15.09.22.32.33.49zM340.34 131.57c-.41.16-.82.3-1.22.47a3.61 3.61 0 0 1-2.55-.14c-.62-.18-.78-.76-.76-1.39s.43-1.11 0-1.66c0 0 .15-.28.17-.27.18.07.47.16.49.28a7.41 7.41 0 0 1 .06 1.33c0 .79.18 1 .95 1.16a2.79 2.79 0 0 0 2.07-.35 1.36 1.36 0 0 1 2 .55c.05.07.09.13.15.2s.45.42.42.48a1.18 1.18 0 0 1-.58.53 6.54 6.54 0 0 1-1.4.17c-.18 0-.51-.15-.52-.25a.88.88 0 0 1 .24-.6 2.15 2.15 0 0 1 .55-.38zM377.39 106.9a6.15 6.15 0 0 0-.17 1.25 2.29 2.29 0 0 0 .33 1.12.75.75 0 0 0 1.12.18 1.83 1.83 0 0 1 2.69 1.28 1.28 1.28 0 0 1-.85 1.41 4.42 4.42 0 0 1-1.42.1c0-.15 0-.39.08-.45s.44-.08.6-.19a2.4 2.4 0 0 0 .71-.71.7.7 0 0 0-.23-.64c-.3-.14-.79-.29-1-.15a2 2 0 0 1-2.93-1.63 1.33 1.33 0 0 1 1.07-1.57zM315.73 138.08a1.17 1.17 0 0 1 .31-.2c.22-.08.58-.24.65-.16.24.28.81.37.61 1a2.13 2.13 0 0 1-1.28 1.5c.23.38.46.72.65 1.09.06.12 0 .3 0 .45-.15 0-.38 0-.45-.11-.8-1.1-2-2.1-1.44-3.67a14.57 14.57 0 0 1 1.18-2.33.43.43 0 0 1 .4 0 .47.47 0 0 1 .12.42c-.21.49-.47 1-.69 1.43a5.4 5.4 0 0 0-.18.57zm.93.37l-1.25.55c.09.21.19.43.29.64a3.08 3.08 0 0 0 .55-.45 4.45 4.45 0 0 0 .41-.76zM359.7 149.83a2.9 2.9 0 0 0 2-.63 7.73 7.73 0 0 1 2.12-.88c.19-.05.62.38.75.68.22.47.41.45.77.2a1.67 1.67 0 0 1 .52-.17 2.52 2.52 0 0 1-.09.56 1.31 1.31 0 0 1-.3.41c-.49.48-1.05.4-1.3-.24s-.48-.55-1-.47a4.43 4.43 0 0 0-2 1 1.43 1.43 0 0 1-2.22-.55 7 7 0 0 0-.65-.79l.12-.16a3.23 3.23 0 0 0 .53.08c.31 0 .69 0 .9-.12.46-.34.62-.08.85.27zM312.03 118.08a5.41 5.41 0 0 0-.71-1.27 6.89 6.89 0 0 0-1.47-1 3.62 3.62 0 0 0-1.25-.42c-.53 0-1.07.1-1.6.11-.14 0-.28-.19-.42-.28.12-.11.23-.28.37-.3.5-.1 1-.14 1.68-.22a8.77 8.77 0 0 0 0-1.44c0-.18-.41-.29-.6-.46s-.38-.31-.35-.41a.74.74 0 0 1 .42-.43.8.8 0 0 1 .6.12 2.1 2.1 0 0 1 .83 2c-.26.73.06.85.65.94a2.82 2.82 0 0 1 2.11 2.58c-.04.1-.14.21-.26.48zM343.36 169.08a6.47 6.47 0 0 1-.87.64 2.51 2.51 0 0 0-1.47 2.49c.18 2.57-1.3 4-3.35 5a3.28 3.28 0 0 1-1 .18 1.43 1.43 0 0 1-.08-.22 8.5 8.5 0 0 1 .75-.47 5.34 5.34 0 0 0 2.67-2.63 6.5 6.5 0 0 0 .34-1.54 11.8 11.8 0 0 1 .32-1.81 2.44 2.44 0 0 1 2.69-1.64zM314.33 191.85a4.6 4.6 0 0 0-1.48 2.76c-.13.7-.13 1.43-.26 2.13a4.56 4.56 0 0 1-2.86 3.53c-.19.07-.46-.05-.7-.08.14-.15.25-.36.42-.44a4.27 4.27 0 0 0 2.32-2.9c.19-.74.22-1.52.34-2.28a4.44 4.44 0 0 1 1.38-2.68 2.07 2.07 0 0 1 .74-.23zM334.69 121.27a9.41 9.41 0 0 0 1.1.45c1.41.38 2.83.75 4.26 1.05a3.37 3.37 0 0 0 1.2-.14c.8-.15 1.37.18 1.45.83a1.28 1.28 0 0 1-1.23 1.52 2.43 2.43 0 0 1-.76-.08c-.13 0-.21-.22-.31-.33a1.48 1.48 0 0 1 .44-.21 4.06 4.06 0 0 0 .86-.14c.16-.07.23-.34.35-.52-.2-.11-.38-.29-.58-.3-.53 0-1.06.07-1.6.06a11.73 11.73 0 0 1-4.94-1.59c-.16-.08-.25-.29-.38-.44zM321.23 139.66a1.54 1.54 0 0 1-1 1.91 1 1 0 0 1-1.31-.9 6.35 6.35 0 0 1 .38-1.79 1.24 1.24 0 0 0-.88-1.85 4.11 4.11 0 0 1-.88-.34.44.44 0 0 1-.16-.37.35.35 0 0 1 .29-.18c.81.17 1.71.1 2.27.94.42.64.67 1.23.13 1.92a1.14 1.14 0 0 0-.26.57 10.29 10.29 0 0 0 0 1.11 7.62 7.62 0 0 0 .9-.46 3.24 3.24 0 0 0 .52-.56zM400.74 130.37a4.7 4.7 0 0 1 .92.09c.21.06.55.24.37.48a.55.55 0 0 1-.5.27c-.41 0-.83 0-1.23-.11-.22 0-.45-.07-.67-.12-.46-.1-.91-.23-1.36-.37l-.68-.23a3.07 3.07 0 0 1-.6-.22c-.14-.08-.36-.23-.4-.39s.41-.45.61-.46c.52 0 1 .12 1.57.12s1.25-.12 1.88-.14c.21 0 .61-.05.78.09s-.28.56-.37.68a3.23 3.23 0 0 1-.32.31zM342.4 173.25a2.71 2.71 0 0 1 .4-.36 14.07 14.07 0 0 0 2.25-1.43 4.49 4.49 0 0 0 1.42-3.17c-.41.48-.79 1-1.24 1.43-.13.14-.41.13-.63.19a2.76 2.76 0 0 1 .22-.59c.44-.68.9-1.34 1.35-2l.36-.58c.41 1.07.89 2 .34 3.09a5.45 5.45 0 0 1-2.65 3c-.56.23-1.14.41-1.7.62zM361.99 156.95c-1-.47-1.14-.6-1-1.27a1.24 1.24 0 0 0 1.92 0c.49.47.55.88 0 1.33s-.83.86-1.3 1.22a1 1 0 0 1-1.6-.49 2.29 2.29 0 0 0-.29-.56c-.42-.53-.64-.51-1 .06a.87.87 0 0 1-.2.32.55.55 0 0 1-.4.1c-.09 0-.15-.24-.15-.36a1.77 1.77 0 0 1 1.06-1.26 1.12 1.12 0 0 1 1.25.56 3.57 3.57 0 0 1 .25.38c.49.85.84.86 1.46-.03zM376.83 106.02c.47-2.47.93-4.94 1.4-7.41h.34a3.32 3.32 0 0 1 .18.85c-.07.7-.24 1.39-.32 2.09s-.35 1.28.06 2c.2.35.05.91 0 1.38 0 .1-.21.29-.29.28-.52-.09-.63.28-.81.63-.08.15-.27.24-.42.36zM347.6 172.96a2.59 2.59 0 0 1 .19-.31c.56-.74 1.13-1.48 1.67-2.23a3.93 3.93 0 0 0 .45-3.15c-.15-.83-.49-1.64-.65-2.47a1.35 1.35 0 0 1 .3-.87c.1-.13.4-.12.61-.17a2.72 2.72 0 0 0-.15.54 4.57 4.57 0 0 0 0 1.11c.17.81.47 1.6.58 2.42a5.55 5.55 0 0 1-1.4 4.07 7.74 7.74 0 0 1-.95 1 1.81 1.81 0 0 1-.59.22 1.54 1.54 0 0 1-.06-.16zM359.46 146.92a2.22 2.22 0 0 1-1.73.17c-1-.22-1.12-.15-1.38.84a2.74 2.74 0 0 1-.13.29 3.06 3.06 0 0 0-.43-.23.73.73 0 0 0-.95.16c-.24.26-.78.27-1.2.34-.07 0-.25-.18-.25-.29s.13-.24.24-.3a12.72 12.72 0 0 1 1.17-.58.44.44 0 0 1 .39 0c.34.27.53.11.72-.18.6-.9.86-1 1.92-.7.72.2 1 .05 1.29-.63-.32-.33-1.2-.31-.93-1 .57-.07 1-.14 1.4-.18.1 0 .27 0 .29.05s.1.39 0 .47a1 1 0 0 0-.21 1.09c0 .18-.15.42-.23.64zM357.37 185.67a16.61 16.61 0 0 1-1.32 1.2 2 2 0 0 1-2.37-.14 1.88 1.88 0 0 0-2.79.08 3.12 3.12 0 0 1-3.17.73c.16-.17.22-.3.29-.31a6.49 6.49 0 0 0 3.1-1.37 2.05 2.05 0 0 1 2.66.18c1.19 1 1.35.6 2.44 0 .35-.19.69-.42 1-.63zM344.43 150.16a9.12 9.12 0 0 1-.22 1.27 1.71 1.71 0 0 0 .8 2.22 2 2 0 0 1 .11 3.38.83.83 0 0 1-.47.16 2.34 2.34 0 0 1-.62-.19 1.65 1.65 0 0 1 .35-.46 1.36 1.36 0 0 0 .76-1.25 1.12 1.12 0 0 0-.84-1.09c-.61-.21-.66-.83-.79-1.37a3.36 3.36 0 0 1 .63-2.73zM317.03 143.08a6.64 6.64 0 0 1 .55.64 3.57 3.57 0 0 0 1.73 1.45 1.55 1.55 0 0 1 .77 1.12 29.57 29.57 0 0 1-.08 3.39 2.8 2.8 0 0 1-.32.77h-.23a5.79 5.79 0 0 1-.2-1v-2.63a1.55 1.55 0 0 0-.81-1.46 9.75 9.75 0 0 1-1.49-1.52c-.13-.15-.08-.45-.11-.69zM371.37 118.39c-1-.31-.86-1.11-1-1.7-.33-1.18 0-1.68 1.09-2.26a.62.62 0 0 0 .22-.57 5.34 5.34 0 0 0-.56-.74 6.44 6.44 0 0 1-.34-.7c.27 0 .65-.07.79.07a5.87 5.87 0 0 1 1.09 1.4c.27.51-.08 1.11-.78 1.31a.9.9 0 0 0-.72 1.2c.08.44.16.88.23 1.32 0 .2-.02.36-.02.67z"></path><path d="M359.46 146.92a7.83 7.83 0 0 1 1.06-.18 1.56 1.56 0 0 0 1.51-1.07 3.56 3.56 0 0 0 .34-1 2.12 2.12 0 0 0-.21-.78c.49-.59 1-1.23 1.56-1.83a2 2 0 0 1 .59-.29 1.37 1.37 0 0 0 .13.2c-.18.23-.36.46-.52.7a1.14 1.14 0 0 0-.29 1.05c.06.22-.24.55-.37.83-.38.75-.69 1.54-1.14 2.25a2.31 2.31 0 0 1-2.19.51 2.69 2.69 0 0 1-.47-.43zM362.12 171.92a7.63 7.63 0 0 0 2.11-.57 7.71 7.71 0 0 0 1.48-1.63c0 .46.06.81.09 1.16.94 0 1.22-.25 1.64-1.27.51.3 1 .59 1.54.91.07.05.13.27.08.33s-.26.23-.35.2a8.82 8.82 0 0 1-.86-.44c-.56.91-1.54.89-2.5 1a2.2 2.2 0 0 0-.83.43 2 2 0 0 1-1.77.26 4.49 4.49 0 0 1-.63-.38zM350.71 192.22c0 .43.05.79-.09 1a3.37 3.37 0 0 1-2.66 1.54 1.67 1.67 0 0 1-1-.53 2.71 2.71 0 0 0-2.76-.7 1.1 1.1 0 0 1-.44 0c.06-.15.08-.37.2-.46a2.39 2.39 0 0 1 3.18.5c.59.63 1.12.59 1.88.13a16.55 16.55 0 0 0 1.69-1.48zM321.93 188.16a7.76 7.76 0 0 1 1.42-4.82 5.7 5.7 0 0 1 3.84-2.47l.12.18a2.1 2.1 0 0 1-.5.4 7.05 7.05 0 0 0-4.29 5.63c-.07.39-.2.76-.3 1.14zM308.94 197.69c.12-.18.16-.32.25-.37a2.9 2.9 0 0 0 1.36-2.47c.1-.92-.07-1.89.07-2.8a10.65 10.65 0 0 1 .81-2.18c0-.08.1-.13.17-.19l.58-.48a2.36 2.36 0 0 1-.23.83 3.42 3.42 0 0 0-.66 2.59 6.2 6.2 0 0 1-.81 4.19c-.32.49-.65 1.09-1.54.88zM328.66 151.32l1.42-.13c0-1.35-1.53-1.2-1.93-2.18.63-.4 1.15.13 1.58.37s1.42 0 1.06 1.06a16 16 0 0 1 1.61.52c.18.07.27.35.39.53a1.63 1.63 0 0 1-.62.21 4 4 0 0 1-.71-.25c-.36-.08-.76-.35-1 .28-.12.3-1.58.23-1.8-.06-.06-.07 0-.23 0-.35zM298.6 101.34c-.67-.76-1.43-.55-2.18-.16a2 2 0 0 1-2.09-.3c-.32-.21-.58-.5-.91-.69s-.81-.39-1.22-.58c.21-.6.64-.79 1.18-.43s1 .72 1.42 1.08a1.51 1.51 0 0 0 1.63.15 2.53 2.53 0 0 1 2.05-.06c.59.25.62.54.12.99z"></path><path d="M324.77 185.27c.62-1.15.88-2.51 2.11-3.3a1.54 1.54 0 0 1 1.58-.1 2.43 2.43 0 0 0 2.21.15c.11-.05.27 0 .41 0a1.42 1.42 0 0 1-.14.44 2.12 2.12 0 0 1-2.28.25c-.95-.44-1.37-.37-2 .43-.44.57-.83 1.18-1.25 1.77-.13.18-.29.33-.44.5zM290.42 104.85c-1 1.61-5.36.48-6.75-1.65a2.07 2.07 0 0 1 .72 0c1 .48 2 1 3.1 1.48a5.48 5.48 0 0 0 1.63.15c.4.04.79.02 1.3.02zM372.6 148.84l1.11-.84.39-.26a1.3 1.3 0 0 1 .21.49c0 .84-1.36 1.63-2.31 1.33a1 1 0 0 1-.24-.1 1.38 1.38 0 0 0-1.63-.13c-.19.09-.45 0-.69 0a2.94 2.94 0 0 1 .32-.61 3.39 3.39 0 0 1 2.22-.66c.14 0 .34.39.51.6a2.12 2.12 0 0 1 .11.18zM337.72 125.59a5.56 5.56 0 0 1 1 .8 2.34 2.34 0 0 0 2.31.82c.31-.08.65-.17.71.23 0 .16-.25.46-.45.55a3.28 3.28 0 0 1-3-.86c-.29-.38-.54-.81-.94-.1a.76.76 0 0 1-.43.26 1.34 1.34 0 0 1-.49 0 1.4 1.4 0 0 1 .07-.51 3.92 3.92 0 0 1 .58-.76 4.54 4.54 0 0 1 .64-.43zM371.5 162.25a4.93 4.93 0 0 1 1-.58c.62-.22.73-.65.76-1.24a16.39 16.39 0 0 1 .34-2l.29-.09c-.13-.07-.3-.11-.38-.22a2.94 2.94 0 0 1-.29-.59 2.16 2.16 0 0 0 .51-.07 3.87 3.87 0 0 0 .55-.34c.14.47.29.94.4 1.41a.4.4 0 0 1-.15.31 1.61 1.61 0 0 0-.57 1.72 1.2 1.2 0 0 1-.78 1.55 5.8 5.8 0 0 1-1.07.42c-.16 0-.37-.06-.55-.11a1.6 1.6 0 0 1-.06-.17zM338.6 161.39a6.76 6.76 0 0 0 1.76-1.22 9.83 9.83 0 0 0 2.08-4.73 6.41 6.41 0 0 1 .13-.67 1.46 1.46 0 0 1 .38 1.6 11.92 11.92 0 0 1-2.34 4.42 1.86 1.86 0 0 1-1.75.73l-.24-.09s-.02-.07-.02-.04zM323.87 180.69a5.76 5.76 0 0 1 .38-.69 2.08 2.08 0 0 1 3.2-.6 1.81 1.81 0 0 0 2.46-.06c.18-.12.38-.21.58-.32l.14.12a1.79 1.79 0 0 1-.3.62 2.58 2.58 0 0 1-3 .39c-1.32-.81-1.57-.78-2.71.32a4.49 4.49 0 0 1-.49.37zM328.6 153.33a4.68 4.68 0 0 1 .32.62c.13.44.42.92-.08 1.3a1.28 1.28 0 0 1-1.5.05c-.38-.24-.55-.08-.7.22s-.12.38-.21.54a5.3 5.3 0 0 1-.42.52c-.12-.22-.36-.44-.34-.65a2.16 2.16 0 0 1 1.22-1.83.83.83 0 0 1 .56 0c.85.19.89.18 1.15-.77zM335.79 196.54c-.12-1 1.09-3.09 2.42-3.07 1.05 0 2.1-.08 3.14-.1.11 0 .22.15.33.23-.13.16-.23.42-.39.46a5.93 5.93 0 0 1-1.26.14c-.41 0-.81-.06-1.22-.08-1.26 0-1.88.55-2.44 1.87a5.51 5.51 0 0 1-.38.67zM288.16 77.08a3.14 3.14 0 0 1 .48.39c.82 1 1.62 2.09 2.44 3.13.43.55.9 1.08 1.32 1.64a1.22 1.22 0 0 1 .11.49c-.15 0-.35 0-.43-.05a12.9 12.9 0 0 1-1.51-1.54c-.83-1.1-1.59-2.26-2.37-3.4a2.87 2.87 0 0 1-.21-.51zM354.1 183.45a7.32 7.32 0 0 0 1.24 0 5.24 5.24 0 0 0 2.41-1.51 4.16 4.16 0 0 0 1.37-2.1c0-.1.16-.17.24-.25.07.1.2.2.22.31a2 2 0 0 1-.75 1.83 15.87 15.87 0 0 1-2.54 2 3.59 3.59 0 0 1-1.66.27c-.21 0-.42-.25-.63-.39zM327.7 196.21c.32-.73.6-1.48 1-2.18a1.41 1.41 0 0 1 1.77-.47 2.22 2.22 0 0 0 2 .15c.12-.06.34.1.53.17-.58.95-1.28.83-2.34.55s-1.31-.23-1.79.71a6.68 6.68 0 0 1-.41.8 3.56 3.56 0 0 1-.54.48zM348.68 125.75c-.55-.65-1.24-.41-1.84-.18a5.4 5.4 0 0 1-3.39.16c-.17-.05-.31-.24-.46-.37a1.56 1.56 0 0 1 .56-.17 5.81 5.81 0 0 0 3.15-.39 3.71 3.71 0 0 1 1.94-.1c.47.06.47.51.04 1.05zM367.33 162.27c.47-.31.76-.49 1-.7a1.28 1.28 0 0 0 .33-1.93c-.44-.65-.41-1 .12-1.51s.89-.62 1.47-.22c-.32.21-.63.4-.91.62s-.31.54-.07.89c.92 1.32.08 2.69-1.27 3.16-.11.05-.34-.16-.67-.31zM344.18 189.69c1.12.27 2.18 1.07 3.4.57s2.13-1 3.37-1.53a3.5 3.5 0 0 1-2.37 1.92c-1.27.5-3.53.5-4.4-.96zM334.6 183.7c-.6 1.08-1.49 1-2.42.84a5.66 5.66 0 0 0-1.14-.19 1.5 1.5 0 0 0-1.41.81 3.24 3.24 0 0 1-.5.57 1.4 1.4 0 0 1 .92-1.9 3.56 3.56 0 0 1 2.45.12 1.57 1.57 0 0 0 1.46-.09 2.31 2.31 0 0 1 .64-.16zM359.6 152.45c.22.19.34.36.49.42a2.06 2.06 0 0 0 .7.07 2.69 2.69 0 0 0 .54-.14l.06.59v.18c1.12.45 1.59.08 2.55-2a2.19 2.19 0 0 1-.39 2.13 2.1 2.1 0 0 1-2.36.43 8.34 8.34 0 0 0-.95-.35c-.45-.11-.71-.57-.64-1.33zM308 196.3c0-.16 0-.34.09-.43a2.81 2.81 0 0 0 .45-2.66 2.82 2.82 0 0 1 .24-2.17c.11-.16.36-.23.54-.34 0 .18-.05.36-.07.55a5.28 5.28 0 0 0-.06 1.31 4.52 4.52 0 0 1-.06 3c-.21.39-.38.94-1.13.74zM306.72 191.16a5.71 5.71 0 0 1 .11-4.11c.69-1.51 2.32-1.75 3.6-2.44l.11.17-1.46.94c-.34.22-.68.43-1 .68-1.14.86-1.1 2.13-1.12 3.36v1.38zM377.87 88.51c1 .39.89 1.14 1 1.75.12 1.14.14 2.29.17 3.44a7.2 7.2 0 0 1-.11 1h-.21a1.91 1.91 0 0 1-.21-.49c-.11-1.39-.2-2.77-.32-4.16-.09-.42-.21-.9-.32-1.54zM360.3 142.15a4.62 4.62 0 0 1-.05 1.24c-.1.29-.4.61-.75.11s-.79-.06-1.13 0-.55.55-.77.19a2 2 0 0 1 0-1.2c.05-.22.29-.4.56-.76.09.42.14.68.24 1.14l1.32-1 .61.29zM364.37 164.74c-.18-.75-.36-1.4-.47-2a.75.75 0 0 1 .79-.86c.44 0 .88.05 1.36.08v-.61c.3.17.57.25.7.43a.64.64 0 0 1 0 .62 1.52 1.52 0 0 1-.82.36 7 7 0 0 1-1.27-.15c.01.73.41 1.47-.29 2.13zM389.96 126.5c.32.47 0 .87-.26 1.21a4.07 4.07 0 0 1-2.4 1.21 3.82 3.82 0 0 1-.94.14c-.16 0-.33-.13-.49-.2.11-.14.2-.34.34-.4a15.18 15.18 0 0 0 1.68-.6c.71-.38 1.33-.87 2.07-1.36zM362.6 170.31a16.87 16.87 0 0 1 .5-2c.13-.33.51-.79.78-.8 1 0 1.36-.49 1.25-1.47h.23a2.46 2.46 0 0 1 .26.91c-.05.49-.29 1.11-.81 1.1-1.2 0-1.21.85-1.38 1.61-.18.58-.42.79-.83.65zM379.36 144.46a1.06 1.06 0 0 0 0-.31c-.4-1.37.45-2.18 1.32-3 .11-.11.33-.1.5-.14 0 .18.11.39 0 .54-.14.3-.29.7-.55.83-.81.43-.72 1.06-.54 1.75a1 1 0 0 1 .05.25c0 .4-.17.7-.57.69-.13 0-.24-.36-.37-.56zM340.73 165.67a17.05 17.05 0 0 0 2.48-1.67 17.26 17.26 0 0 0 1.8-2.4c.06.23.19.46.14.63-.43 1.39-1.93 3.27-3.64 3.44-.27.02-.54 0-.78 0zM341.83 166.4c.17 1.92-2.42 2.86-4.91 2.25l1.29-.35a9.72 9.72 0 0 0 2-.55 9.57 9.57 0 0 0 1.62-1.35zM364.72 177.56c.1-1.13-.32-2.35.41-3.38.24-.34.84-.47 1.3-.62.12 0 .32.19.49.3-.15.17-.26.43-.44.5-.91.35-1.14.65-1.12 1.62a3.76 3.76 0 0 1 0 .95 3.11 3.11 0 0 1-.38.72zM375 146.24c.25-.43.49-.88.78-1.29.08-.11.33-.1.51-.15a2.35 2.35 0 0 1 0 .59c-.09.28-.64.49-.21.84s.6-.08.87-.32c.11-.1.38-.05.57-.07a4.4 4.4 0 0 1-.1.47 1.14 1.14 0 0 1-.21.46c-.18.18-.43.43-.62.41a3.65 3.65 0 0 0-1 0c-.59.1-.52-.44-.45-.86zM313.67 118.91c.74.63 1.63 1.13 1.72 2.29 0 .18.29.33.44.49a7.82 7.82 0 0 1 .67.75.44.44 0 0 1-.08.42c-.07.07-.3 0-.42 0a4.14 4.14 0 0 1-.84-.57c-.23-.22-.52-.52-.53-.79a2.42 2.42 0 0 0-.7-1.66 5.31 5.31 0 0 1-.48-.75zM364.46 184.83c1.21-1.84 2.41-3.64 3.59-5.45.29 1.17-2.51 5.43-3.59 5.45zM321.51 184.28a9.12 9.12 0 0 0-2.78 5.27c-.48-.69.11-3.08.91-4.06.96-1.21 1.31-1.41 1.87-1.21zM365.05 148.26c.14-.19.23-.44.37-.48.9-.2 1.2-.84 1.38-1.64a.93.93 0 0 1 1.64-.41c-.08.07-.15.19-.22.19-.57 0-.72.4-.82.89a1.84 1.84 0 0 1-2.35 1.45zM378.29 150.35c.2-.46.39-.93.61-1.37s.47-.87.7-1.28l-1.11-.24c.1-.56.17-1 .27-1.55l1 1.41.36-.15c.3.36-1 2.94-1.59 3.27zM341.97 179.14c-.16.41-.29.84-.49 1.24a5.2 5.2 0 0 1-2.56 2.65c-.46.19-.75.16-1.16-.36 2.27-.24 3-2.07 3.95-3.69zM301.21 186.53a8.11 8.11 0 0 1 .49-.92 7.38 7.38 0 0 1 3.74-2.73.5.5 0 0 1 .38.1 11.75 11.75 0 0 0-4.3 3.77zM336.6 174.55a2.29 2.29 0 0 1-.72 2.19 4.92 4.92 0 0 1-3.32 2.17 10.87 10.87 0 0 0 4.04-4.36zM373.76 144.29c-.18 0-.51.19-.53.15-.2-.32-.55-.75-.46-1a4.14 4.14 0 0 1 2.89-2.39c.1 0 .28.1.42.16-.14.16-.24.41-.41.47a4.46 4.46 0 0 0-2 1.33c-.36.41-.47.75.09 1.11a1.23 1.23 0 0 1 0 .17zM354.86 172.43a3.08 3.08 0 0 1 .32-.37 3 3 0 0 0 1.08-3.39 1.38 1.38 0 0 1 0-.41 1.31 1.31 0 0 1 .42.16c.57.43.49 1.06.42 1.65-.09.88-.86 2.27-1.7 2.36a4.35 4.35 0 0 1-.54 0zM338.08 178.76a3 3 0 0 1-1.94 2.07 3.55 3.55 0 0 1-2.46.21v-.17a13.85 13.85 0 0 0 2.33-.66 14.22 14.22 0 0 0 2.07-1.45zM355.6 173.81c.16-.19.25-.4.41-.47a3.1 3.1 0 0 0 1.85-3 .61.61 0 0 1 .05-.18c.47.28.57 1 .26 1.81a2.63 2.63 0 0 1-2.57 1.84zM361.86 182.19a6.18 6.18 0 0 0 1.52-.93 6.61 6.61 0 0 0 .77-1.63c.72.33.4 1.28-.13 2.12a1.6 1.6 0 0 1-2.16.44zM371.93 108.61a1.05 1.05 0 0 1 0 .21c-.32.95-.65 1.91-1 2.86a.43.43 0 0 1-.33.19c-.05 0-.2-.19-.18-.27.28-1 .57-2 .9-3 0-.14.31-.22.47-.32a3.58 3.58 0 0 1 .14.33zM315.43 191.21c-.45-1.27.66-3.7 1.85-4.06-.68 1.43-1.25 2.75-1.85 4.06zM329.5 198.32a3.33 3.33 0 0 0-2 1.71c-.09.21-.13.44-.22.64a2.61 2.61 0 0 1-.31.43c-.09-.17-.25-.33-.26-.5a2.86 2.86 0 0 1 1.57-2.36c.32-.16.72-.56 1.22.08zM354.99 165.29c1.5 1.37 2.29.26 3.11-.77.38.4.14.74-.06 1a1.92 1.92 0 0 1-1.83 1 1.29 1.29 0 0 1-1.22-1.23zM339.5 162.3c1.58-.23 2.34-1.4 3.09-2.59a2.2 2.2 0 0 1-.93 2.22 1.85 1.85 0 0 1-2.16.37zM295.3 105.99l-4-.74c.08-.08.17-.32.35-.41.56-.31 3.18.24 3.65 1.15zM337.98 160.08c.47.44.3.85.09 1.25a1.86 1.86 0 0 1-2 1 1.23 1.23 0 0 1-.66-.5c1.41.15 2.04-.75 2.57-1.75zM351.18 152.52h1.95c.65 0 .91-.32.81-1a.74.74 0 0 1 .46 1c-.05.2-.34.38-.55.5-.79.44-1.58.09-2.37 0-.15 0-.26-.22-.4-.33a1.13 1.13 0 0 0 .1-.17zM372.37 137.68a9.64 9.64 0 0 0-1.82.89 17 17 0 0 0-1.19 1.41 2.09 2.09 0 0 1 .75-1.87 1.87 1.87 0 0 1 2.26-.43zM360.92 165.18c.54 0 1.06.14 1.41 0s.45-.68.71-1.12a1.14 1.14 0 0 1 .08 1.44 1.48 1.48 0 0 1-1.67.49c-.29-.2-.67-.39-.53-.81zM343.65 161.08c.3.56 0 1.4-.89 2.08-.66.52-1.07.59-1.37.31zM364.23 145.08a11.14 11.14 0 0 1 0-1.42 1.68 1.68 0 0 1 1.6-1.32c.15 0 .29.16.44.25-.1.11-.19.31-.31.33a1.13 1.13 0 0 0-1.09 1.41.67.67 0 0 1-.64.75zM347.77 169.24c.18-1.15.36-2.29.57-3.44 0-.15.19-.27.28-.41.11.18.32.37.3.53a13.17 13.17 0 0 1-.38 2.26 5.38 5.38 0 0 1-.68 1.18zM381.85 142.94c.55.55 0 .83-.13 1.18a5.84 5.84 0 0 0-.2.59c-.05.2 0 .51-.14.59a2.11 2.11 0 0 1-.83.2c-.06 0-.2-.19-.18-.28a2.13 2.13 0 0 1 .24-.8c.38-.51.82-.98 1.24-1.48zM351.6 151.23a2.16 2.16 0 0 1-.39.49c-.66.45-1.47.72-1.77 1.59 0 .1-.25.13-.38.19 0-.14-.16-.31-.13-.43a2.45 2.45 0 0 1 1.35-1.55c.36-.18.75-.29 1.12-.44zM320.02 155.89c-.09.57-.16 1-.23 1.39s-.11.89-.22 1.32c0 .14-.25.33-.36.32s-.37-.25-.35-.35c.16-.81.35-1.61.58-2.41.03-.08.29-.14.58-.27zM337.49 138.08c-.14.26-.24.44-.32.63s-.24.6-.37.89a4 4 0 0 1-.22.41c-.14-.1-.36-.18-.42-.32a1.14 1.14 0 0 1 .21-1.4c.11-.1.16-.25.26-.35a5.71 5.71 0 0 1 .47-.39zM359.51 168.21l-.57-.31c.17-.41.42-.64.79-.43a.93.93 0 0 1 .44 1.22 1.22 1.22 0 0 1-1.65.22c-.09-.07-.12-.2-.18-.3a1.51 1.51 0 0 1 .36-.18h.81zM300.87 185.41c-.36.94-.68 1.79-1 2.62-.06.15-.25.24-.39.35-.08-.12-.24-.26-.22-.37a4 4 0 0 1 1-2.36 1.52 1.52 0 0 1 .61-.24zM309.6 177.15a14.14 14.14 0 0 0 1.14-1c.3-.33.52-.72.8-1.07a1.75 1.75 0 0 1 .42-.26c.06.16.2.33.18.48a2.92 2.92 0 0 1-2.54 1.85zM362.14 184.77c.67.8.25 1.84-.86 2.17a3.17 3.17 0 0 1-.92 0 3.79 3.79 0 0 1 .68-.59 2.15 2.15 0 0 0 1.1-1.58zM336.34 198.08a6.1 6.1 0 0 0 1.55.28 7.13 7.13 0 0 0 1.56-.55c.08.58-.35.83-.75 1-.81.45-1.56.27-2.36-.73zM343.94 180.86c.37.87.24 1.39-.47 1.84-.5.31-1 .8-1.83.23a3.18 3.18 0 0 0 2.3-2.07zM370.2 165.92c.18.64.15 1.12-.2 1.44a1.26 1.26 0 0 1-1 .36c-.31-.1-.52-.54-.75-.85 0 0 0-.27.1-.31a.36.36 0 0 1 .34.06c.75.56.74.56 1.25-.28zM336.87 164.21l2.42-1.41c-.16.42-.18.8-.39 1a5.74 5.74 0 0 1-1.34.82c-.52.23-.67-.09-.69-.41zM306.39 193.66c.6.34.51.93.44 1.42a1.54 1.54 0 0 1-.94 1.41.48.48 0 0 1-.33 0 .29.29 0 0 1 0-.27 2.79 2.79 0 0 0 .73-2.35c-.03-.1.05-.14.1-.21zM335.86 193.84l-2.05 2.24c-.29-.22-.28-.52.13-1.14.66-.93 1.44-1.39 1.92-1.1zM320.68 202.66c-.4 1.38-2.14 2.4-2.94 1.88zM347.54 170.38c.41 1.24-.6 3.21-1.43 3.06zM305.99 187.08c-.19 1.21-.38 2.37-.59 3.66-.65-.93-.22-3.35.59-3.66zM335.51 174.13c-.23 1.42-2.11 3.24-2.75 2.81.9-.93 1.84-1.86 2.75-2.81zM323.46 142.92l-.63-.22-1.49-.51a.59.59 0 0 1-.29-.19s.05-.22.12-.27a1.47 1.47 0 0 1 1.56.09c.39.2.87.38.73 1.1zM339.41 178.76c1.13 0 1.17-1.19 1.89-1.71a2 2 0 0 1-1.11 2.2c-.21.08-.5-.1-.75-.16zM368.49 164.49l1.78-1.63a1.58 1.58 0 0 1-1.25 1.9c-.2 0-.42-.2-.53-.27zM330.74 148.89a2.54 2.54 0 0 1-.86.22 3.05 3.05 0 0 1-1.07-.38c-.15-.08-.2-.33-.3-.51a1.45 1.45 0 0 1 .52-.12c.57.11 1.12.27 1.68.41zM367.18 173.8c.39.08.78.3 1.06.19s.43-.52.68-.83a.85.85 0 0 1-.05 1.15c-.27.38-.59.61-1 .46a.92.92 0 0 1-.69-.97zM339.41 141.9c-.17.17-.27.36-.41.4a.44.44 0 0 1-.4-.22 8 8 0 0 1-.56-1.14 1.22 1.22 0 0 1 0-.47c.2 0 .5 0 .57.05a14.15 14.15 0 0 1 .8 1.38zM380.45 54.39a3.39 3.39 0 0 1 .57 2.49c0 .11-.2.23-.34.31s-.22-.1-.22-.16c-.02-.82-.01-1.65-.01-2.64zM322.19 146.85l-1.17-1.07c.17-.23.38-.7.55-.69a1.21 1.21 0 0 1 .91.53c.12.29-.15.72-.29 1.23zM357.14 154.91c.6-.15 1.16-.32 1.73-.43a.52.52 0 0 1 .41.29c.05.39-.5.72-1.11.73-.81 0-1.01-.14-1.03-.59zM374.4 140.53c-.09-.27-.2-.41-.17-.48a21 21 0 0 1 1-1.89c.07-.12.4-.08.61-.11-.08.17-.14.34-.23.49-.24.42-.49.84-.74 1.26zM356.76 144.26a2.13 2.13 0 0 1 .4.1c.2.1.38.23.56.34a4 4 0 0 1-.48.44 2.46 2.46 0 0 1-.76.42c-.18.05-.41-.09-.61-.14.09-.14.18-.28.28-.41zM369.8 175.78a1.69 1.69 0 0 1 .11 1.83.62.62 0 0 1-.59 0 .88.88 0 0 1-.16-.71 6.85 6.85 0 0 1 .64-1.12zM343.72 196.41a2.69 2.69 0 0 1 2.33-.4 1.73 1.73 0 0 1-2.33.4zM351.35 173.48l1.09-3c.46.84-.23 2.78-1.09 3zM356.21 156.61l-.64-.95a4 4 0 0 1-.44.51 1.31 1.31 0 0 1-.38.14c0-.12-.11-.26-.07-.35.16-.4.29-.86.84-.86s.65.33.71.75c0 .23.11.45.16.68zM361.78 163.3c0 .28.12.68 0 .82a1.6 1.6 0 0 1-1 .43c-.25 0-.51-.27-.74-.53.53-.34 1.35.15 1.44-.93zM365.54 140.94l2.23.13c-.15.27-.24.62-.41.67a2.15 2.15 0 0 1-1.83-.51zM322.72 148.69c.28-.39.51-.75.78-1.07a.58.58 0 0 1 .47-.18.55.55 0 0 1 .26.44 1 1 0 0 1-1.51.81zM323.42 179.66a1.1 1.1 0 0 1 1-1.25 3.74 3.74 0 0 1 1.13.13c-.29.16-.57.33-.86.48zM359.26 173.39c-.33.6-.64 1.18-1 1.75a.39.39 0 0 1-.28.18.44.44 0 0 1-.24-.26c-.14-.62.86-1.76 1.52-1.67zM326.4 153.08l-.42-.32a3.09 3.09 0 0 1 .33-.39 3 3 0 0 1 .61-.38 3.74 3.74 0 0 1 .59-.21c0 .24.13.61 0 .7a6 6 0 0 1-1.11.6zM369.78 144.02l1.29-1.38c.24.69.15 1.32-.29 1.54a.73.73 0 0 1-1-.16zM349.51 173.98a1.71 1.71 0 0 1-1 1.74 2.52 2.52 0 0 1-.81.06zM365.47 168.32l1.23-1.18c.42.29.42.53-.05 1.12a.71.71 0 0 1-1.18.06zM339.5 196.6a2.77 2.77 0 0 1 2.14-.09c-.78.71-1.44.75-2.14.09zM370.88 145.71c.37.81.16 1.37-.5 1.51-.19 0-.44-.19-.67-.29a4.21 4.21 0 0 1 .36-.37c.14-.12.32-.2.45-.33a5.47 5.47 0 0 0 .36-.52zM319.76 111.54v.56a.64.64 0 0 1-.52.25c-.34-.08-.63-1.24-.43-1.56l1 .76zM377.43 114.81a5 5 0 0 1 .44-.84.52.52 0 0 1 .49-.08c.1 0 .2.28.17.41a3.14 3.14 0 0 1-.36.87c-.05.09-.31.2-.35.16a3.53 3.53 0 0 1-.39-.52zM369.07 146.42a.87.87 0 0 1-.53 1.16 1.33 1.33 0 0 1-.79-.11s-.08-.36 0-.39c.39-.24.85-.43 1.32-.66zM378.48 141.68a2 2 0 0 1-.37.26 1.12 1.12 0 0 1-1.14-.45.39.39 0 0 1 0-.23 1 1 0 0 1 .48-.12c1.01.22 1.03.24 1.03.54zM356.54 149.65c-.43.25-.85.52-1.3.74a.4.4 0 0 1-.38-.1.41.41 0 0 1 .08-.38 4.76 4.76 0 0 1 1-.69c.14-.07.39.1.59.16a2.28 2.28 0 0 0 .01.27zM379.8 106.7c.07-.59.14-1.18.23-1.77 0-.06.17-.15.24-.14s.15.14.19.22a1.62 1.62 0 0 1-.41 1.71zM344.42 176.98c.45.75.18 1.54-.55 1.57-.15 0-.31-.14-.47-.22.08-.13.15-.27.24-.39.24-.31.5-.62.78-.96zM369.51 151.65a1.51 1.51 0 0 0-.35.14c-.22.12-.41.29-.63.4a2.12 2.12 0 0 1-.51.13c0-.19-.08-.46 0-.58a2.07 2.07 0 0 1 .78-.6c.15-.06.4.15.6.24zM354.8 149.41c-.44.06-.8.13-1.16.16a.67.67 0 0 1-.39-.1c-.06 0-.07-.26 0-.27a3.12 3.12 0 0 1 1.12-.47.49.49 0 0 1 .43.68zM361.76 175.5c-.12.63-.25 1.26-.38 1.92-.69-.33-.54-1.37.19-2zM377.41 151c.16.27.49.57.44.81-.08.52-.54.71-1.19.72l.54-1.39zM346.33 158.76c.24-.5.48-1 .73-1.5l.34.12a8.87 8.87 0 0 1-.35 1.37c-.06.14-.43.15-.65.23-.03-.08-.05-.15-.07-.22zM297.7 106.9c.55-.47 1.16-.23 1.55.63-.38.23-.93.01-1.55-.63zM308.39 200.08c-.07.67-.33 1.06-.85 1.19-.16 0-.38-.14-.57-.22.11-.14.19-.33.34-.42.29-.2.65-.35 1.08-.55zM353.97 189.67c0 .1.12.36.08.38-.43.25-.88.47-1.33.69a2.42 2.42 0 0 1-.14-.41c.42-.25.86-.42 1.39-.66zM371.27 146.93c.58-.21.92-.35 1.27-.46h.34c.04 0 .08.34 0 .39a1.59 1.59 0 0 1-.77.44c-.23.06-.51-.22-.84-.37zM356.02 152.86l.93.26a1.34 1.34 0 0 1-.11.62.61.61 0 0 1-.57 0 3.49 3.49 0 0 1-.46-.77zM371.08 160.48a1.14 1.14 0 0 1-.15 1.51.43.43 0 0 1-.35 0c-.09-.06-.11-.2-.15-.31s0-.08.06-.11zM372.98 152.33c-.31.36-.54.65-.8.91-.08.09-.25.09-.38.14a1.32 1.32 0 0 1-.1-.46 1 1 0 0 1 1.28-.59zM370.49 133.51a5.09 5.09 0 0 1-.24.95c0 .13-.28.19-.43.28-.07-.17-.24-.38-.19-.48a6.67 6.67 0 0 1 .58-.91zM397.2 131.9a.76.76 0 0 1 .48-.18.6.6 0 0 1 .56.29c.06.09 0 .29-.05.37-.17.27-.53 0-.72-.09s-.49-.16-.27-.39zM377.31 138.47a.74.74 0 0 1 1.06-.33c.08 0 .12.46 0 .53-.37.35-.71.11-1.06-.2zM352.47 151.18l-.64-.66a3.43 3.43 0 0 1 .71-.37c.07 0 .33.23.31.32a2.64 2.64 0 0 1-.38.71zM361.32 144.85l-.53-.59a4 4 0 0 1 .71-.43c.06 0 .34.25.32.29a5.67 5.67 0 0 1-.5.73zM370.85 165.57c.15-.39.29-.78.45-1.21.59.43.45.88-.45 1.21zM366.52 154.54c-.34.27-.51.5-.72.55s-.3-.24-.46-.37a2.62 2.62 0 0 1 .56-.4c.1-.04.28.09.62.22zM381.99 142.08l.64-.72c.08.39.24.72.15.82s-.45.13-.68.19c-.04-.05-.07-.15-.11-.29zM339.19 166.33l-.36-.46a4.21 4.21 0 0 1 .64-.39s.25.23.23.26a4.68 4.68 0 0 1-.51.59zM373.33 132.92c-.07-.05-.73.81-.88.17s.66-.33.88-.17zM383.82 139.93c.16.22.35.37.34.5s-.24.26-.39.28-.31-.2-.3-.3.19-.27.35-.48zM377.75 152.85c.08-.25.16-.49.25-.72a1.68 1.68 0 0 1 .33.09c-.07.25-.15.5-.22.75zM310.67 210.31l-1.75 1.57M381.87 148.54c-.47.9-.89 1.73-1.34 2.6M276.35 204.43a13.38 13.38 0 0 1 1.18-1.14c.71-.51 1.48-1 2.2-1.45 2.55-1.78 5.6-2.51 8.34-3.88 1.17-.59 2.31-1.23 3.46-1.84.11-.06.22-.17.33-.18a2.09 2.09 0 0 1 .5.08c-.07.16-.1.38-.23.46-.58.37-1.19.67-1.77 1a46.7 46.7 0 0 1-7.25 3.35 30.93 30.93 0 0 0-5.82 3.23 5 5 0 0 1-.55.33s-.14.04-.39.04zM292.8 196.28c-.77 2.34-7.43 6.09-10 5.58a5.4 5.4 0 0 1 1.36-.76 16.94 16.94 0 0 0 7.67-4.2 8.48 8.48 0 0 1 .97-.62zM302.39 198.82a5.08 5.08 0 0 1-.36.7c-.89 1.14-1.78 2.28-2.7 3.4-.62.75-1.28 1.48-1.93 2.22-.07.08-.12.2-.21.23s-.46.13-.69.19c0-.25-.06-.58.07-.74.57-.72 1.22-1.39 1.81-2.09 1.12-1.31 2.22-2.64 3.33-4a.94.94 0 0 1 .43-.23c.06.04.15.21.25.32z"></path><path d="M48.37 89.52v129.42H18.73V89.52H0V62.08h67.11v27.45zM125.5 154.01h-13.73v64.94H82.14V62.08h29.63v63.62h13.73V62.08h29.63v156.86H125.5zM233.78 218.94h-59.92V62.08h59.27v27.45h-30.07v36.39h27.23v27.66h-27.23v37h30.72zM414.39 183.43V96.49c0-25.71 14.6-36.39 37.26-36.39 23.54 0 37 10.46 37 34.43v32.68h-30.68V97.36c0-8.06-1.31-11.11-6.53-11.11-5 0-6.32 3.49-6.32 12.86v81.49c0 9.58 1.09 12.64 6.32 12.64 5 0 6.31-3.06 6.53-11.33v-32.47h30.94v35.08c-.43 26.8-13.73 36.39-37.48 36.39-25.05-.01-37.04-10.9-37.04-37.48zM504.81 218.94v-28.1h13.07V89.96h-13.07V62.08h54.69v27.89h-12.85v100.87h12.85v28.1zM621.14 89.52v129.42h-29.63V89.52h-18.74V62.08h67.11v27.45zM673.11 218.94v-56.21L649.6 62.08h29.85l8.28 43.14.87 15.68 1.09-15.68 8.48-43.14h29.63l-24.2 99.78v57.08z"></path></svg>
